<svg id="Ebene_1" data-name="Ebene 1" xmlns="http://www.w3.org/2000/svg" viewBox="0 0 1267.2 676.6"><defs><style>.cls-1{fill:#73003a;}.cls-2{fill:#733b3a;}.cls-3{fill:#734a71;}.cls-4{fill:#730071;}.cls-5{fill:#d0c156;}.cls-6{fill:#a4d127;}.cls-7{fill:#a4c156;}.cls-8{fill:#d9f427;}.cls-9{fill:#a4f427;}.cls-10{fill:#d0c100;}.cls-11{fill:#a4a156;}.cls-12{fill:#a4a197;}.cls-13{fill:#d9b127;}.cls-14{fill:#9a4668;}.cls-15{fill:#7a4654;}.cls-16{fill:#7a4605;}.cls-17{fill:#7a0005;}.cls-18{fill:#007358;}.cls-19{fill:#5f8a65;}.cls-20{fill:#00896a;}.cls-21{fill:#5f8a34;}.cls-22{fill:#2a6835;}.cls-23{fill:#41896a;}.cls-24{fill:#c77;}.cls-25{fill:#ab5077;}.cls-26{fill:#ab5038;}.cls-27{fill:#ab50a9;}.cls-28{fill:#d650a9;}.cls-29{fill:#d65070;}.cls-30{fill:#d65089;}.cls-31{fill:#d62f89;}.cls-32{fill:#4545c6;}.cls-33{fill:#4559c6;}.cls-34{fill:#1b8573;}.cls-35{fill:#1b59c6;}.cls-36{fill:#00b9a7;}.cls-37{fill:#00b98c;}.cls-38{fill:#003d73;}.cls-39{fill:#000973;}.cls-40{fill:#1b85c6;}.cls-41{fill:#00858c;}.cls-42{fill:#00998c;}.cls-43{fill:#fff;}</style></defs><title>karte</title><g id="Australien"><path id="WestAustralien" class="cls-1" d="M1080.7,573.8s4.1-.7,6.5-9.2c0,0,.5-3.8-1.7-9.7l-.2-9.3s-.7-19.5,4.5-24.8c0,0,12.2-8.5,25.1-9.5,0,0,8.3,1.1,13.6-13.9,0,0,5.8,4.8,5.2-.6,0,0-.3-2.6,8.3-9.7,0,0,2.6-3.6,8.3-3.3l5.2,4.9-12.8,48.6,49.9,3.1-17.7,50.9s-2.2,2.9-3.7-2a10.21,10.21,0,0,0,2.2-5.1,20,20,0,0,1-2.4-7.4s-1.6-2.7-3.4,3.2c0,0-5.5,2.2,4.8-8,0,0,.5-3.7-4.3-1,0,0-6.6,4.4-7.5,6.3,0,0-3.1-12-10.6-13.4,0,0-16.6-1-29.4,5,0,0-4.6,4.1-14.6,4.6,0,0-9.6.3-17.4,5.3A8.4,8.4,0,0,1,1080.7,573.8Z" transform="translate(-50.7 -46.6)"/><g id="NeuGuinea"><path class="cls-2" d="M1154.3,419.2l1.3,1.6.8.6,1.2.1.7-.8.6-1.1-.1-1v-1.3l-.4-.6a4.65,4.65,0,0,1-.3-.9,16.7,16.7,0,0,0-.6-2l.1-.9,1.7-1.4.5-.4-.1-1-.5-.4a4.4,4.4,0,0,0-.9.1c-.4.1-1.6.3-1.6.3l-.6,1.7-.2.8-.7.2v1l.4,1.2s.4.7.2,1-1,.9-1,.9l-.1,1.1Z" transform="translate(-50.7 -46.6)"/><path class="cls-2" d="M1170.2,425.8l1.1-.6.9-.2.7-.3,1.3-.8,1.1-.4,1.4.3,1.2-.3,1.1.8.9.9.6.8.7.7s.3.7.4,1,.6,1.6.6,1.6l-.1,1.4.3,1.3,1.2,1.4.8,1.1,1.2,1.2.4.4a2.87,2.87,0,0,0,1.2-.2,3,3,0,0,0,1.4-.9,12.83,12.83,0,0,1,1-1.5c.3-.4.7-.9.7-.9l1.1-.4s.3-.3.9-.8,1.2-.8,1.4-1a6.73,6.73,0,0,1,1.1-.7,6.38,6.38,0,0,1,1.4-.8c.3-.2.3-.2,1.7-.4a4.79,4.79,0,0,1,2.1-.1l2.1.9,3.7,1.4s-.1-.2.7.3a21.66,21.66,0,0,0,2.6,1.2l2.1,1.1a9.62,9.62,0,0,1,2.1.7,12.17,12.17,0,0,0,2.7.9,7.16,7.16,0,0,1,2.2.8,10.14,10.14,0,0,0,1.9.9l2.3,1.4,4.2,1.9s0-.2.7.4,1.5,1.1,1.9,1.4,2,1.4,2,1.4,1.4.9,1.9,1.3,1.1.8,1.1.8a2.6,2.6,0,0,1,.7.9c.2.5.7,1.4.7,1.4a6.36,6.36,0,0,1,.3.9,12,12,0,0,1,.3,1.4s.1-.3.1.7v1.4l.6,2.4a2.53,2.53,0,0,0,.4.9c.4.8,1.3,2.3,1.3,2.3a20.31,20.31,0,0,0,1.4,2,9.49,9.49,0,0,1,1.4,2.1,20,20,0,0,0,1,1.8s-.7,0,1.6,1.1,2.4.8,3,1.4,2.8,3.4,2.8,3.4l1.5.9v1.2l-1.1.1-1.1-.2-.9-1s.1-.4-.8-.5a9.72,9.72,0,0,0-1.8-.1,9,9,0,0,1-1.7,0,1.89,1.89,0,0,1-1.4-.6,11.09,11.09,0,0,0-1.1-1.1c-.4-.3-2.3-1.4-2.3-1.4a13.47,13.47,0,0,0-2-1.1,8.21,8.21,0,0,1-1.8-.9,8.1,8.1,0,0,1-.6-1.3,5.42,5.42,0,0,0-.6-1.6c-.5-.8-.3-.9-1.2-1.7s-2-1.8-2.2-2-1.3-1.1-1.3-1.1l-2.6-1.8-1.5-.5s-1.6-.2-2.2-.2a3.1,3.1,0,0,0-1.2.3,10.18,10.18,0,0,1-.8,1.7,7.22,7.22,0,0,1-.8,1s-.8,1.2-1.1,1.7.5-.4-.3.5a9.69,9.69,0,0,0-1.4,2.8,10.33,10.33,0,0,0-1.4.1,11.24,11.24,0,0,1-2,.2,4.13,4.13,0,0,1-1.6-.5s-.9-1.1-1.4-1.1-1.9-.1-2.1-.1h-.7s-.5-1-.7-1.3a12.89,12.89,0,0,1-.6-1.2,9.53,9.53,0,0,0-1.7-1.2l-1.2-.3h-1a.64.64,0,0,0-.8,0l-.4.3s-2,.3-2.5.3-1.6,0-1.9-.3a1.46,1.46,0,0,1-.5-.8c0-.2,0-.8,1.1-1a5.49,5.49,0,0,0,2.1-1l1-.9a3.78,3.78,0,0,0,.1-.8,7.72,7.72,0,0,0-.2-1.5,8.93,8.93,0,0,0-.6-2c-.3-.3-1.2-1.4-1.2-1.4l-.5-1.8-1.4-1.2a12,12,0,0,1-1.7-.6c-.3-.2,0,0-.6-.3s-1.1-.8-1.6-1-1.9-.9-1.9-.9l-2-.7s-.7-.4-1.5-.8-1.9-.9-1.9-.9a8.14,8.14,0,0,0-1.2-.8,8.7,8.7,0,0,0-1.4-.8,8,8,0,0,0-2.4-.4c-.8,0-1.1-.2-2.1-.2s-1.9-.1-1.9-.1,0,.3-.3-.5a3.65,3.65,0,0,0-.7-1.4,5.73,5.73,0,0,1-.7-1.6l1.6-.8c.3-.2.6,0,.7-.5a6.09,6.09,0,0,0,0-1.4,8.48,8.48,0,0,0-1.7-1.2,6.26,6.26,0,0,0-1.4-.4l-1.8-1.4-1.5-.8-1-.8Z" transform="translate(-50.7 -46.6)"/><path class="cls-2" d="M1157.5,433.4a1.54,1.54,0,0,0-.3.7,5.38,5.38,0,0,1-.1.8l.4.5s.3.4,1.4.3a10.21,10.21,0,0,1,1.4-.2l.6.6a.69.69,0,0,0,.4.3,4,4,0,0,0,1.6.1c.5-.1.7.3.9-.4s.3-1,.7-1.1a2.55,2.55,0,0,1,.9,0s1.2-.4.7-.6,0-.3-1-.3-1.4-.1-1.7.2a1.27,1.27,0,0,1-.8.3s0-.3-.7-.5-.3-.5-1.2-.6l-1.8-.2-.8-.1Z" transform="translate(-50.7 -46.6)"/><path class="cls-2" d="M1291.3,470.5s.1-.6.1-.7,0,0-.2-.6,0-.6-.3-.8-1.3-.8-1.3-.8-.1.3-.1-.5v-1.3a3.81,3.81,0,0,0-.1-1.3c-.2-.4-.5.3-.5-1.4s0-1.6-.1-1.9a5.9,5.9,0,0,1-.4-.8l-.3-.6s.7-.4-.3-.6a4.52,4.52,0,0,0-1.8,0,1.73,1.73,0,0,1-.7.1,8,8,0,0,0-1.1.1l-.7-.2-.8-.7-.6-.8c-.3-.4-.7-.8-1-1.2s-.3-.7-.8-.8a5.77,5.77,0,0,0-1.4-.3,13.64,13.64,0,0,0-1.7-.4,8.49,8.49,0,0,1-.9-.3,4.17,4.17,0,0,1-1.3-.7c-.4-.4-.5-.4-.6-.7a4.93,4.93,0,0,1-.4-.9s-.7-.6-.9-.6-.1-.1-.6-.3a4.67,4.67,0,0,0-1.4-.4c-.8,0-1.7-.2-2,0s-1.4-1-1.6-1.2-.1,0-.5-.7a8.33,8.33,0,0,0-.7-1.4,2.76,2.76,0,0,1-.6-.8,6.6,6.6,0,0,0-.4-1.1c-.1-.1-.5-.6-.8-.6s-.6-.1-.7.2-.3.2,0,.8a7.17,7.17,0,0,0,.7,1.1,2,2,0,0,1,.2.9s-.7-.9-.1.6a8,8,0,0,1,.7,2.1v.7a2.81,2.81,0,0,0,.8.8c.4.3,1,.7,1,.7a1.73,1.73,0,0,1,.7.2,7.92,7.92,0,0,1,1,.6c.7.5,2,1.7,2,1.7l1.5,1.6a4.79,4.79,0,0,0,.8,1.1c.5.5.5.3,1.1,1.1s.9,1.5,1.2,1.8a5.1,5.1,0,0,0,.9,1,5,5,0,0,0,3.1,1,4,4,0,0,1,2.3.3c.6.3.5.3,1,.8a11.41,11.41,0,0,0,1.1,1.1,12.07,12.07,0,0,0,1.6,1.6c.6.3,1.9.7,2.2.9s-.2-.6.8.7,1.4,1.7,1.8,1.7,1.1,0,1.1.1Z" transform="translate(-50.7 -46.6)"/><path class="cls-2" d="M1243.2,447.6s-.4.5-.3.7a1.17,1.17,0,0,0,.6.6,2.68,2.68,0,0,0,1.1-.2,4,4,0,0,1,.4.3c.1.2.6.3.8.4a8.14,8.14,0,0,0,.9.2l.3.4s0,.3.4.4.6.3.9.1.3-.3.7-.5.6-.3.8-.3,0-.1.4-.2.4,0,.9-.4a10.44,10.44,0,0,0,1.4-1c.2-.1.4-.4.6-.6a3.39,3.39,0,0,1,.6-.6c.3-.2.3-.3.7-.4a6.89,6.89,0,0,0,.8-.3,1.53,1.53,0,0,0,.7-.5c.2-.3.5-1,.7-1.3a6.12,6.12,0,0,0,.5-1.2,4.12,4.12,0,0,1,.2-.9l.7-.4s.9-.2,1.1-.2a2.57,2.57,0,0,0,1.2-.5c.1-.2.2.5.3-.8a6.26,6.26,0,0,0-.1-2l-.7-.3a1.49,1.49,0,0,0-.6-.6,11.85,11.85,0,0,1-1.2-.8l-.8-.8s-.4-.5-.7-.8a11,11,0,0,0-1-.8,3,3,0,0,0-.7-.5,5.13,5.13,0,0,0-1.2-.5,5.25,5.25,0,0,1-1.1-.7s.1-.2-.3,0a6.24,6.24,0,0,1-1.7.2l-.2.4,1.1,1.1a2.85,2.85,0,0,1,.8.4c.2.2,1.3,1.1,1.6,1.4a4.76,4.76,0,0,0,1.4.6,3.81,3.81,0,0,1,.9.8,11.09,11.09,0,0,1,1.1,1.1,12,12,0,0,1,.9,1.2l-.6.7-1.1-.2a3.78,3.78,0,0,0-.8.7c-.2.3-.7,1-.7,1s-.8.6-.9.7a7.64,7.64,0,0,0-.9.9,10,10,0,0,1-1,1.1,5,5,0,0,1-.7.5l-1.4.5-1.7.6a14.93,14.93,0,0,1-1.7.2,13.64,13.64,0,0,0-1.7.4C1244.8,447,1243.2,447.6,1243.2,447.6Z" transform="translate(-50.7 -46.6)"/></g><g id="Indonesien"><path class="cls-3" d="M1147.6,461.4a6.2,6.2,0,0,1,1.4-.4c.3,0,2.5-.5,2.5-.5l.3-.8-1.1-.4-1.6-.1-1.4-1.1-2.6-.2-1.7.7a4.56,4.56,0,0,0-.8.4c-.6.3-1.3.7-1.3.7l-1.3.8-1.4,1.5-.6,1.1-.1,1.2-.8.5-.9.8,1.1,1.2,2.3-.4.3-.8s-.1-.3.6-.7a13.23,13.23,0,0,0,1.5-.8l1.2-.7a10.59,10.59,0,0,1,1-.7,1.94,1.94,0,0,1,1.2-.3A11.64,11.64,0,0,0,1147.6,461.4Z" transform="translate(-50.7 -46.6)"/><path class="cls-3" d="M1124.4,466.4v-.8s0-.4.6-.9,1.9-1.9,2.6-2.4.3-.5,1.1-.8,2-.3,2.5-.5,1.7-.6,1.7-.6l.3-.4a.61.61,0,0,0-.2-.6,5.74,5.74,0,0,0-.9-.8,4,4,0,0,0-1.4-.4,7.84,7.84,0,0,1-2.1-.2c-1-.3-1.4-.4-2-.6a9.69,9.69,0,0,0-2.3-.3c-.5,0-.7-.1-1,.2s-.7.8-.7.8v.5s-2.6,2.5-2.7,2.7-.3.1-.5.7a5.09,5.09,0,0,0-.4,1.4l1.3.8s1,1,1.4,1.3a2.77,2.77,0,0,0,.9.5C1122.7,466.2,1124.4,466.4,1124.4,466.4Z" transform="translate(-50.7 -46.6)"/><path class="cls-3" d="M1112.8,461.6l2.6-.3,1.2-.3.3-.5.1-1.3-.5-.8s-.1-.2-.6-.3a20.34,20.34,0,0,0-2.2-.1s-1.5.1-2,.1-1.1.2-1.4.2-.4-.1-1-.1a3.14,3.14,0,0,1-1.1,0c-1.3-.1-3.4-.3-3.4-.3l-1.7-.5s-.1.1-1.4-.7-1.4-.8-2.5-1.4a15.41,15.41,0,0,0-2.4-1,6.13,6.13,0,0,0-2.8-.8,3.18,3.18,0,0,1-2.8-1.1c-.5-.8.9-1.4-1.4-2s-2.9-.4-2.9-.4l-2.6.8a12.75,12.75,0,0,1-1.4.4c-.3,0-3.2.3-3.2.3l-1.8-.3-1.7-.5.1-.4-2.3-1.2a5.53,5.53,0,0,0-.9-.1c-.4,0-1.6.2-1.6.2l-.9-.6a6,6,0,0,0-1.9-.6,7.6,7.6,0,0,0-1.4.1,12.68,12.68,0,0,0-1.5.4l-.8.6-.5.7-.7.6v1.2l1.5,2.1s0,.1.3.1a13,13,0,0,1,1.5.3l1.4.3a10.53,10.53,0,0,1,1.8.3,5.09,5.09,0,0,0,1.4.4s1.4-.1,2.1-.2,2-.3,2-.3l1.7.1,2.9.3s2.5,1.2,2.8,1.4a7,7,0,0,0,1,.7c.7.3,1.7.8,1.7.8s2.4.1,3.4.1a20.78,20.78,0,0,1,2.5,0,5.34,5.34,0,0,1,2.1.3,13.7,13.7,0,0,1,1.4.8,6.53,6.53,0,0,0,2,.5c.8.1,1.1-.3,2.6-.2s2.6.2,2.6.2a.7.7,0,0,0,.4.2,13.54,13.54,0,0,1,3.1.7c.4.3,1.4.2,1.9.4s.1.3,1,.5a13.78,13.78,0,0,0,2.6.5,3.1,3.1,0,0,0,.7-.2Z" transform="translate(-50.7 -46.6)"/><path class="cls-3" d="M1020.9,395.7a22.69,22.69,0,0,0,6.7,9.1s9,7.8,9.2,13.1c0,0,4.9,4.2,9.8,15.5,0,0,6,9.3,12.8,13.5,0,0,3.8-2.3,5.5-5.3,0,0,1.2-8.3-5.9-13.2,0,0-5.7-2.5-7.4-11.2,0,0-9.3-7.5-11.3-8.6a11.2,11.2,0,0,1-4.2-5.7C1036.2,402.8,1027.8,395.4,1020.9,395.7Z" transform="translate(-50.7 -46.6)"/><path class="cls-3" d="M1080.1,412.5s6.9,3.5,7-2a9.28,9.28,0,0,1,7-4.8s2.9-2.9,2.9-5.9c0,0,6.9-2,9-4.8,0,0,.9-3.7,3.9-5a14.14,14.14,0,0,1,8.3,6.8s-5,5.3-4.9,8.8c0,0,1.4,6.6,4.1,9.1,0,0-5.3,2-6.1,10.7,0,0-3.1,8.4-6.2,10.9,0,0-9.7-2.5-11.4-1.4l-3.1-.4-2,.1-1.4.3s-1.9-.8-2.1-.9a4.1,4.1,0,0,0-1.4-.3c-1-.2-1,.1-1.4-.6a10.57,10.57,0,0,1-.5-1.9,8.17,8.17,0,0,0-.4-2.7,6.28,6.28,0,0,0-1-1.4c-.8-1-1.1-.8-1.1-1.5a9.31,9.31,0,0,0-.3-2.6,15.77,15.77,0,0,0-.5-2.5c-.4-1.1-.6-.5-.6-1.8a12.31,12.31,0,0,1,.4-3.1c.3-.8.2-1,.4-1.4A18,18,0,0,1,1080.1,412.5Z" transform="translate(-50.7 -46.6)"/><path class="cls-3" d="M1120,444.2l.6.8,1,.7,1-.4.7-.7,1.3-.2.8-1.2a1.54,1.54,0,0,1-.3-.7,16.7,16.7,0,0,0-.6-2l-.3-.8a1.91,1.91,0,0,0,0-1.1c-.2-.4-.8-1.4-.8-1.4s-.2.3-.2-.3-.1-.8.2-1.1a7.68,7.68,0,0,1,.7-.6l1.4-1.1.6-1.2.8-.3.8.7a.5.5,0,0,1,.3.5,9.82,9.82,0,0,0,.8,1.8,2.15,2.15,0,0,1,.2,1,4.05,4.05,0,0,0,0,1.1c.1.6,0,.7.3.9a4.12,4.12,0,0,0,1,.6,1.26,1.26,0,0,0,.4.7c.3.2.9.7.9.7l.8.4a1.1,1.1,0,0,0,.7.1c.3-.1,1.2-.7,1.3-1.2s.2.1.2-1,.2-.8.2-1.9v-1.3l-.7-.7s-.3-.1-.8-.9a5.48,5.48,0,0,1-.8-1.4,3.06,3.06,0,0,0-.8-1v-1l-.3-1.7.8-.7,1.5-1.2a6.39,6.39,0,0,1,1.2-.6,2.43,2.43,0,0,0,1.2-.5,15.07,15.07,0,0,0,1.3-.9,1.38,1.38,0,0,0-.7-.7,3.23,3.23,0,0,0-1.7-.4,11.13,11.13,0,0,0-2.5.3c-.3.1-.6.6-.6.6l-3.3.7-1.5.2a2.12,2.12,0,0,1-1.1-1c-.3-.7-.2-.3-.3-.9a4.3,4.3,0,0,1-.2-1.2c-.1-.8-.3-.9-.3-1.3s-.5,0,.3-.9,1.4-1.7,1.4-1.7l2.4-.6s.8-.2,1.5-.3,2.4-.3,2.4-.3.8.4,1.1.6a2.21,2.21,0,0,0,1.1.5c.8.3.4-.2,1.3.4a19.27,19.27,0,0,0,2.5,1.4s.7.7,1.6-.2,2-1.4,2.4-1.9,1.1-.4,1.6-1.5a16.68,16.68,0,0,0,1.2-3.1c0-.4-1.3-1.1-2-1.1s-.9-.4-1.6.3-.9,1.4-1.3,1.8a6.15,6.15,0,0,1-1.8.8s2.3.6-1.3.1-3.7-.7-4.9-.8l-2.5-.4a24.4,24.4,0,0,0-2.6.1,6.66,6.66,0,0,0-.7.3l-1.6.8a5.56,5.56,0,0,0-.8.4,7.7,7.7,0,0,0-1.6,2.2,5,5,0,0,0-.3,1.9,14.35,14.35,0,0,0-.2,2.6c.1.4-.1,1.2,0,1.6a4.1,4.1,0,0,1-.2,1.8,7,7,0,0,0-.3,1.4,6.12,6.12,0,0,1-.3,1.4c-.2.3-1.1,1-1.3,1.4s-1,1.8-1,1.8.1-.1-.4.8-.8.8-.8,1.5-.2.6.1,1,.9,1.2,1.3,1.7,1,.6,1.1,1.5.1,1.3.1,1.3l.1.8-.6.8-.7.9Z" transform="translate(-50.7 -46.6)"/><path class="cls-3" d="M1111,379.4l.3,1.9,1.4.6,1.8-.9,1.4-.8,1.3-1.2.9-2.6,1.5-2,1.7-2.2-.5-.9s.2-.8-.3-.9-1.4-.4-1.7.2-.8.8-.9,1.3a6.28,6.28,0,0,1-.8,1.5,7.91,7.91,0,0,1-1.3.8c-.4.3-.3.3-.6.5a2.58,2.58,0,0,0-.8,1.3,6.36,6.36,0,0,1-.6,1,8.43,8.43,0,0,1-.7.8l-.3.3-2,1.8Z" transform="translate(-50.7 -46.6)"/><path class="cls-3" d="M1121.6,336.6l-1.3,1.4-.3,2.5.4,2.6-1.1,1.8-1,1.8s-.1,1.5-.1,1.8a14.63,14.63,0,0,0,.9,2.1l.8,2.1,2.1,1.8,1.6,1.4.9,1.4-.1,1.4-.8,1.2-.5,1.8a5.31,5.31,0,0,1,.3,1.1c.1.3,1,2.2,1,2.2l1.2.3.8.3,1.4,1.3,1.1,1.6-1,1.3.2,1.2,1,.4,1.9,1.5.7,2,.6,1.4.3,1.7a7.17,7.17,0,0,0,.1,1.3c.1.3.7,4.2.7,4.2l-.8,1.9-.3,1.4h2.2l2.5-.3,2.2.8a18.23,18.23,0,0,1,.6,1.8,17.67,17.67,0,0,1,.3,2.1c0,.4.4.8.9,1.6s3.1,1.8,3.1,1.8,2.3.5,2.5.2,1.5-1.9,1.5-1.9a6.39,6.39,0,0,1-.4-1c-.1-.4-1.9-1.2-1.9-1.2s-.3-1.1,0-1.3a1.49,1.49,0,0,1,.9-.4h1.1a6.19,6.19,0,0,0,.9,1.1,6.75,6.75,0,0,0,1.7.3s.3-2.2.3-2.5-.1-1.7-.1-2.2-.8-1.5-.8-1.5-.4-1.1-.7-1.7-.8-1.4-.8-1.4a5.37,5.37,0,0,1-.8-1.4,5.27,5.27,0,0,1-.6-2,10.08,10.08,0,0,0-.6-1.9,26.73,26.73,0,0,1-.7-2.6l.2-2.2.1-.4.2-1.7a7.32,7.32,0,0,0-.9-.9,9.67,9.67,0,0,1-1.2-1.7c-.7-1.1-.6-1.5-1.2-1.8s-1.5-.6-2-.8a12.08,12.08,0,0,0-1.4-.3,5.83,5.83,0,0,1-1.1-1.5,3.38,3.38,0,0,1-.4-1,4.41,4.41,0,0,0-.3-1.4,22.23,22.23,0,0,0-1.4-2.2s.4-.5-.8-.9-2.2-.9-2.5-.5-.8,1.1-.8,1.1.1.3-.3.2a7,7,0,0,1-1.4-.8,10,10,0,0,1-1-.9,6.07,6.07,0,0,0-1-.7,18.16,18.16,0,0,1-1.4-1.4,1,1,0,0,0-.6-.5,15.48,15.48,0,0,1-1.5-.8s-.3.2.1-.4.9-1.4.9-1.4a1.91,1.91,0,0,0,.8-1.5,16.28,16.28,0,0,1,.5-2l.6-1c.3-.5.7-.5.5-1.1a11.26,11.26,0,0,0-.8-2.2,2.57,2.57,0,0,1-.8-1.4,17.18,17.18,0,0,1-.5-2l-1.4-1.4s-.5-.7-.8-.8A14,14,0,0,0,1121.6,336.6Z" transform="translate(-50.7 -46.6)"/></g><g id="Ostaustralien"><path id="OstAustralien-2" data-name="OstAustralien" class="cls-4" d="M1155.8,488.4s4.2,2.8,4-3.3c0,0,2.2-5.3,4-6.5,0,0,11.8-3.7,12.8-5,0,0,9.4,1.5,11.2,4.1,0,0-4.5,6.8-4.3,8.7,0,0-4.4,3.4,16.3,14.8a26.72,26.72,0,0,0,8.9-9.6s2.9-23.5,6.3-20c0,0,1,8.9,7.4,15.1a19.65,19.65,0,0,1,2.8,10s-1,6.3-1.8,7.6c0,0,6.1,1.7,12.1,17.8,0,0,.6,4.6,8.6,12.7,0,0-1,15.4-4,20.2,0,0-5,11.2-13.9,16.2,0,0-2.4-.7-8.4,10,0,0-7.1,4.2-9.8,9.5l-.7,1.8-1.6.3-5.2-1.2-1.6,1.1-1.5-.1-.8,1.1-2,.6a7.92,7.92,0,0,1-.6,1,4.17,4.17,0,0,0-.5,1l-1.4.6-2-.3-.5-.9-1.1-.6-1.2-2.3-1.1-.2a4.19,4.19,0,0,0-1.5,1.2,5.6,5.6,0,0,0-1.1,1.5c-.3.5-4-.6-4-.6l-2.2-.8-3.1-2.2,18.2-51.6-50.2-3.2Z" transform="translate(-50.7 -46.6)"/><polygon class="cls-4" points="1129 559.1 1129 566.1 1127.2 568.5 1127.1 570 1129.4 570.9 1132.8 570.2 1135.1 568.8 1138 567 1140.2 565.1 1142 561.5 1140.8 560 1138.1 560.1 1134 560 1130.8 559 1129 559.1"/></g></g><g id="NordAmerika"><g id="Alberta"><path class="cls-5" d="M179.5,151.9h-11v.1h-.9l1.4,2.4s3.3,1.3,3.8.3c.3-.5,2.2-.1,3.9.3h1.4a.37.37,0,0,1,.3.1h0a.37.37,0,0,1,.3.1h.1c.1,0,.1,0,.2.1h.1c.1,0,.1.1.2.1h.1c.1,0,.1.1.2.1h.1c.1,0,.1.1.2.1h.1c.1.1.2.1.2.2h0c.2.1.3.3.5.5h0c.1.1.1.2.2.3v.1c0,.1.1.2.1.3a.1.1,0,0,0,.1.1c0,.1.1.2.1.3v.1c0,.1.1.2.1.3v.1a.37.37,0,0,0,.1.3v.1a1.09,1.09,0,0,0,.1.5v2.3a.9.9,0,0,1-.1.5.37.37,0,0,1-.1.3c0,.2-.1.3-.1.5s-.1.2-.1.3a4.33,4.33,0,0,1-.1.5c0,.1-.1.2-.1.3s-.1.4-.2.6-.1.2-.1.3a6.89,6.89,0,0,1-.4,1l.5,1.4.9,1.3c1.1.8-1.3,3.6-1.3,3.6l-.2.2a7.08,7.08,0,0,1-2.4,2c-5.8,3.5-2.2,9.5-2.2,9.5-4,3-1,5.8-1,5.8,8.8,4.3,7.5,9.8,7.5,9.8l78.8-.3c4.5-18.3,28.8-46.5,28.8-46.5Z" transform="translate(-50.7 -46.6)"/></g><g id="Weststaaten"><path class="cls-6" d="M181.6,199.1l84.9-.1-.3,10.9s-3.4,14.6-6.6,16.8,2.5,14.8,2.5,14.8,0,7.6-3.3,12.9h-38l-5.4,21.1H201.8l-5.9,1s-12.8,6.4-23.9-4.1H161.5s-1.4-5.4-8.4-7.4c0,0-2.6-7.4-1.8-9.1s-1.4-9.3-1.4-9.3a35.83,35.83,0,0,1,1.3-6.6c.8-2-1.3-1.4-1.3-1.4s-2.3.9,4.8-6a31.13,31.13,0,0,0,3-7.1c1.4-4.6,7.1-7.1,7.1-7.1s6.5-8.5,6.5-13.9l5.5-.9s-2,6.6,2.6,1.9S181.6,199.1,181.6,199.1Z" transform="translate(-50.7 -46.6)"/></g><g id="Alaska"><path class="cls-7" d="M181.4,168.1l-.9-1.3-.5-1.4c4.4-11.5-3.4-10.5-3.4-10.5h0c-1.7-.5-3.6-.9-3.9-.3-.5,1-3.8-.3-3.8-.3l-3-5,1.3-.7,41.7-34.1c-3.2-.7-6.9-1.5-11.1-2.5-36.3-8.8-56.3,4-56.3,4-16-.5-14,4.8-14,4.8,8.5,9.5-9,5.3-9,5.3-24.3,7.5-3.5,7.8-3.5,7.8,16.8-5.8.3,4.8.3,4.8s-21-1-20.3,5.5-1.3,7.8-1.3,7.8l-5,2.5,5,3c12.8-4.3,2.3,3,2.3,3-30,11.8-16.5,10-16.5,10s22.5-10.3,24-9.5,8.8-3,8.8-3,10.8-8,15.3-5.5,16.8-4.5,16.8-4.5,10.5,3.3,23.5,8.5c7.8,3.2,9.1,6.7,8.9,9h0a7,7,0,0,0-.6,1.9,2.48,2.48,0,0,1-.4.6l.3.8a9.47,9.47,0,0,0,1.7,4.9l2.1-1.9C180.1,171.6,182.5,168.8,181.4,168.1Zm-1.2-1.3Z" transform="translate(-50.7 -46.6)"/></g><path id="Oststaaten" class="cls-8" d="M298.4,305.2a10.64,10.64,0,0,0,3.5-6.8s-3.7-10.2-1.9-17.9c0,0,1.5-6.6,14.7-13.2,0,0,9.8-4,13-8.7,0,0-1-10.8,1.2-12.7,0,0,9.2,0,16.5-12.5,0,0,10.1-.8,13.8-4a8.93,8.93,0,0,1,6.2-7.8s10.3-3.5,11.7-5.4c0,0,0-10.2-.7-9.8,0,0-4-1.7-12.9,8.3,0,0,.8,2.4-15.3,1.8,0,0-3.8-.3-11.8,7.9,0,0-4,1.2-6.2-.7,0,0-12,10-12.8,9.3l-4.5-.5,4.1-8.9s-3.8.2-3.6-2.7c0,0-.1-2.5,1.8-3.3,0,0,2.5-1.6.8-3.1,0,0-3.2-2-11,4.9,0,0-.6,6-4.8,10,0,0-6.9,8.5-6.7-.1a67.35,67.35,0,0,1,6.3-12.9s3.8-4.1,13.6-5.4l-12.9-3.3s-4.9,4-7.8,2.5c0,0-5.3-.7-.1-4.5l3.4-2.1-13.2-4.5-16.3.1a43.88,43.88,0,0,1-3.4,21.9s-7.4,4.7-4,15.4c0,0,6.6,8.3,1.2,13.7l-2,4.1-37.4.1L215,275.6l-13.8.7s5.9,2,7.9,10.9c0,0,0,4,6.6-2.3,0,0,4-.3,7.2,6.5,0,0-1.3,8.8,7.9,11,0,0-2.1-10.4,17.2-16.9,0,0,3.4-4.9,13,1.1a12.26,12.26,0,0,0,5.3,1.4,7.92,7.92,0,0,1,8.2-7.3s10.4,2.9,11,4.2c0,0,2.7-4.9,7.9,3.1,0,0-.1,5.9-.9,6.8A14.93,14.93,0,0,0,298.4,305.2Z" transform="translate(-50.7 -46.6)"/><g id="Mittelamerika"><g id="Mitteelamerika"><path class="cls-9" d="M291.4,378.4c-6.3,3.5-10.6-1-10.6-1s-7.9-5.1-1.3-27.1c0,0,2.4-5.3-14.6-1.5-4.3.9-6.1-.1-6.5-2.3a64.11,64.11,0,0,1,5-9.3,39,39,0,0,0,4.4-9l.3-1.2c.5-4.4-4.1-4.4-7.1-3.9a24.32,24.32,0,0,0-3,.9c-1,.4-2.2.9-3.4,1.5,0,0,1.6,6.9-9.6,10.5l-1.5.3c-12.9,3-15.6-7.8-16.2-12.6a80.77,80.77,0,0,1,2.3-18.6l1.8-3.3s-6.5,2-9.4-11.9c0,0-2.5-5.6-5.9-5.1s-4,3.6-6,3.3-4-7.3-4-7.3-1.6-2.8-4-3.4c-.7-.2-1-1-1.2-2.1l-4.8.8s-12.8,6.4-23.9-4.1H161.9c-.1,3.4.1,11,2.6,15,3.3,5.3-.4,7.5-.4,7.5a11.28,11.28,0,0,0,4.5,4.8c3.2,1.8,2.8,4.9,2,6s1,3.4,2.3,4.1,1.4,4.8,6.4,5.4l-3.6-6.8s-2-5.4-1.9-9.4-4.4-9.5-4.4-9.5-5-12.3,1.8-12.5,5,12.6,5,12.6,7.1,9.5,6.9,12.9,7.9,10.4,7.9,10.4,4.4,7.9,3.4,13.1,3.5,9.1,7.4,11.6,20.9,10,20.9,10,5,2,8.3-.5,9.3,1,9.3,1,5.5,10.5,13,11.1,8.6,0,8.6,0,1.5.8,1.9,4.3,4.6,5.5,4.6,5.5-1.8,4.5,4.4,7.9,4.8,5.4,4.8,5.4l5,.6s12,7.4,7.5-.5c0,0,6.6-5.1,10.6.1,0,0-2.4,2.1-1.3,4.4s5.3-4.6,5.3-4.6S297.6,374.9,291.4,378.4Z" transform="translate(-50.7 -46.6)"/></g><path class="cls-9" d="M279.7,320.1l1.5-1.9,2.2-1.5,2.4-1,6.8-1.5.8.8,4.8.7s2.5,1.4,3.2,1.7,4.9,3.1,4.9,3.1l6.3,2.2s.2.2,1.4.2,2.2-.3,3.4.8,2.7,2.5,2.7,2.5l3.1,1.9s1.9-.2,2.4-.2a17.78,17.78,0,0,1,2,.3s2.9,1.4,3.7,1.9a9.92,9.92,0,0,0,2.7.8s2.9,0,4.4.2a17.8,17.8,0,0,1,3.4.5c.7.3,2.7.8,4.1,1.4s3.7,1.4,3.7,1.4l4.6.8a12.07,12.07,0,0,0,.8,1.5,4.73,4.73,0,0,1,.8,1.5l-1.7,1.4-2.2.7c-3.7-.5-10.2-1.5-12.7-1.7s-3.9-.2-3.9-.2a2.91,2.91,0,0,0-1.4-.3H328s-1.5,0-4.9-.2-3.4-.2-5.9-.2a45.85,45.85,0,0,0-7.6.5c-.8.3,1-.2-1.4.7s-3.9.7-4.4.3a16.61,16.61,0,0,1-1.7-2.2l-1.4-1.4-.2-2.7,2.2-2.4a2.09,2.09,0,0,0,.8-1.2,6.09,6.09,0,0,0,.3-1.7,19.22,19.22,0,0,0-.5-2.4s-2-1.2-2.7-1.7-2.9-1.7-2.9-1.7l-1.7-1.2s-2-1.2-2.7-1.5-2.9-1-2.9-1h-2.7a6.39,6.39,0,0,0-2.5,1c-.8.7.2.5-1.7,1.2a12.79,12.79,0,0,1-3.9.7v-.9Z" transform="translate(-50.7 -46.6)"/></g><path id="NordwestTerri" class="cls-10" d="M209.3,114.4,167,149.3l.8,2.2,146.5.8s18.8-12.7,22.8-11.9.8-2.2.8-2.2l-.2-1.2.8-.8.7-.3,2.2,1.2,1.7-.7,3.7-.2,1.4-1a29,29,0,0,1,2.9-.3h2.2l1.5-.5.3-1.4c-1.9-1.2-2.5-1.4-2.5-1.9v-1c0-.5-.7-.8-.2-1.5s.8-1.2.8-1.2l.7.7s.5.7,1,.8,2.9,1,2.9,1,.3.3,1-.2,1.4-.7,2.2-1.2a23.51,23.51,0,0,1,2.5-1.4,15.35,15.35,0,0,0,1.7-1,21.64,21.64,0,0,0,3.1-.2,30.48,30.48,0,0,1,4.8.3l2,.3,1.7-.7,1.5-.3,3.2-1.7,1.7-1.7,1.4-1.9,1.2-2.5.3-2-2.9-1-5.8.3-2.9,2.5-2.7,3.4-2.5.7-2.5,1.4-2.5-.8-.2-1.5,1-1.9.7-1.7-2.9-1.5-2,.8-1.2-1.5-.2-2.2-.5-3.1.2-1.5,3.1-4.6s1.7-1,2.2-1.2,5.4-1,5.4-1l2.2-.5,2-2.7-3.1-.7-4.4-.2-2.5,1-2.2,1-5.6.2.5-1.7h-2.9a2.43,2.43,0,0,1-1,.5l-2.4.7-2.2.2-1.4,1-1,1.5s-1.9.2-2.4.2-3.6-.3-3.6-.3L329,100.3h-3.9l-1.5,1.7-1.5,2.2-2.2.7-.2-1.9-.2-1.7-3.4-1.2-1.4,1.2-1.4,1.2-2.4-.3-3.9-.3-1.9-1.4L302,98.3l-3.7-1.2-3.9-.8-4.8-.3-5.3.7-3.6,1.4-4.6,2.7-4.1,2.5-2.4,2.5,2,2.4,3.2.5,4.9-2a25.39,25.39,0,0,0,3.7-1.2,23.59,23.59,0,0,1,3.1-.7l1.9.8,1.2.7-1.4,1.2-2.4.3.8,3.1,9.5-.8-11.4,2.4-9.8,2.7a13.44,13.44,0,0,0-2.4-.5c-.7,0-3.1-.5-4.4-.7s-3.1-.3-4.6-.5a37.91,37.91,0,0,0-3.9-.2h-6.1l-1.5-1s.5-.5-1.2-.7-4.1-.2-4.8.3a27.66,27.66,0,0,1-4.2,1.5s.5.2-.8.3a44.84,44.84,0,0,0-4.6,1.2,11.11,11.11,0,0,0-3.4.2c-1.9.4-6.1,1-6.1,1l-2.7.3a27.9,27.9,0,0,0-4.6-.5h-4.1l-3.4-.7Z" transform="translate(-50.7 -46.6)"/><path id="Ontario" class="cls-11" d="M261.1,198.5s17.2-36.2,28.2-46l25.5-.2s-4.9,4.9,2.7,12.1a92.62,92.62,0,0,1,14.3,5.6l10,3.2.2,2.5-.8,1.9-.8,1.4-1,1.4-.2,1.9a5.6,5.6,0,0,0,0,1.9,10.55,10.55,0,0,0,1.4,2.2l.8,1.9,1.9,1.7L335,207v2.5l13.6,6.1-7.3,3.7-7.3,1.4-3.6,2.7L325,228l-2.9-2.4-6.6,2.9,1.5-4.2,4.2-1.5,1.9-4.1,3.1.7,2-.7.7-3.6-2.9-4.6-5.8,1.5-3.1-1.9-1.2-2.2.3-2.4-1.5-3.1a6,6,0,0,0-1.7-1.9,13.67,13.67,0,0,0-2.7-1h-2.9l-2.9.8-4.1,1-2.9,1.7-2.2.3-12.4-4.8Z" transform="translate(-50.7 -46.6)"/><path id="Quebeck" class="cls-12" d="M343.2,189.8,334.7,207l.3,2,12.6,6.1,1.5.8,12.4-1,2.9-1,2.2-2.9s1-.8,1.7-1.5a23.25,23.25,0,0,1,2.5-1.9,2.63,2.63,0,0,1,1.7-.7,19.07,19.07,0,0,0,3.4-.7l1.5,1.2-.2,3.6.3,2.5v2.2l1.9-.3a15.92,15.92,0,0,0,2.2-.8c.5-.3,2.2-1.2,2.2-1.2l4.6-.5.2,1.2v1.7l-2.5,1-2.7.7-2.5,2.4.8,1.2,2.4.5,1.9-1.7a6,6,0,0,1,2-.8,13.72,13.72,0,0,1,3.4-.7c1.4,0,1.5.3,2.7-.2a36.69,36.69,0,0,0,3.6-2,17.68,17.68,0,0,0,2.7-1.4,42.36,42.36,0,0,1,3.9-1.7l.7-.3,2.5-2.2.2-1.5-.8-.8-1.7-.2-4.6,3.4-4.2,2-2.7-.8,2.5-2-1.9-1.2-3.4.3-2.5-2.9,3.9-4.8,1-3.7-7.6.5-10.9,5.6-1.9-2,1-1.7,6.1-3.6,5.6-2.4c.4,0,15.5-3.3,5.9-3.6-7.5-.2,4.4.7,4.4.7l5.8,1.2,3.4.7s5.3-.3,6.1-.5l7.3-1.9,6.1-4.2,5.1-3.4,2.2-3.2v-3.2l-3.7-.7-3.1-.2-2.7.5-2,1.4-1.9-2,3.2-2.7-3.7-7.5.5-9-1-4.9-4.4,2.2-2,1-3.1,2-2.9,1.9-2.9.2-2-.5-.7-2-.5-1.7,1-2.2.8-3.1-2.4-2.4-3.6-2.7-6.6-2H383l-4.2,1.5-2.2,2.2-2.4,5.3-2.9,2.7-2.4,1.9-.5,3.6,1,1.7.7,2.5-2.4,2.5-1.9,1.2-1,2-.7.8h-1c-1.7,0-2.5-.2-3.1.2s-1.9,1.2-1.9,1.2l-1.4,1.4s.2.3-.7,1.2.5-1-1.7,1.5a34.88,34.88,0,0,0-2.9,3.6,2.07,2.07,0,0,0-.5,1.4v2.7l-.5,1.5-2,.8-1.5,1.2L345,189Z" transform="translate(-50.7 -46.6)"/><path id="Groenland" class="cls-13" d="M487.6,150.2l3.6-1.7,2.2-4.1,4.8-7.4,3.7-4.4,4.2-1.8,4.8-2.3,5.4-.5,5-1.1,5.3-3.3,4.2-2.6,4.1-1.9,4.2-.9,5.1.7,4.1-1.5,5.9-1.5h4.3l5.4-1.4.2-1-.8-1.4-3.1-.6-2.7.7-3.7-.3.8-1.5,1.9-.9.9-.6-.7-1.2-.6-1.8,2.6-.9,3.2,1.8,1.5,2.3,3.3.8,2-.3,2.2-.5-.6-1.4-2.9-2.2-2-1.1-2-1.1-1.8-.7-1.7-1.4,1.2-1.2,3.3.1,3.5-.1c.3,0,3.8-.6,3.8-.6l3.3-2.6,3.2-2,1.7-4s3.4-1.8,3.4-2.3a10,10,0,0,1,1.5-2.4l-1.4-3.3,1.9-3.1,3.3-1.8,2.5-1.7,2.5-.2,5-.2,2.5-.2,1.7-1.9,1.1-1.4-6.8-.1-.7.6-6.2.1-2.5-1.2s-1.9-1.1-2.6-1.4-1.5-.6-2-.7,1.4-.5-2.2-.8a37.08,37.08,0,0,1-4.3-.5h-2.9L570,68a2.79,2.79,0,0,0-1.5-1.1,16.86,16.86,0,0,0-2.5-.2h-2.7l-.8.2-.6.7-2.2.9s-.3.1-1.8.5a11.66,11.66,0,0,1-2.9.7c-.9,0-2.8-.7-4.2-.9a17,17,0,0,0-3.7-.3,32.66,32.66,0,0,0-7,.8c-2.2.5-4.2,1.1-4.2,1.1a33.74,33.74,0,0,1-4.4.7c-1.2,0-1.9-.2-3.6-.1s-.6-.5-2.4.3-14,2.6-15.4,2.5-1.9.2-2.6-.1-6.1-1-6.8-1.2-2.3-.5-3.2-.8,3.6-.7-2.7-.6-6.7.2-7.4.3-3.1.7-3.1.7l-2.2,1.8-2.6.6s-2.3,1.2-2.6,1.4-2.3.3-2.7.7-2.3,1-2.3,1l-2,1.1a9.11,9.11,0,0,1-1.6.3,13.26,13.26,0,0,0-2.4.8l-.6.1-5,.9s-1,.1-1.7.2a25,25,0,0,0-2.5.2c-.9.2-4.3.6-4.3.6l-1.6-.1-1.6.3s-1.4.8-1.5,1.1-.5,1.2-.5,1.2l-.1.9.8,1.5s3.5,1.6,4,1.8.6.6,1.4.7a6.61,6.61,0,0,0,2.5.2,10.18,10.18,0,0,0,3.4-.8l4-.6s.2.3,1.7.1a9,9,0,0,1,3.2.3l2.4.6s.6.8.8,1.1,2,2.2,2,2.2l1.1,1.2a3.47,3.47,0,0,1,1,1.1c.6.8.7.5,1.2,1.4s.7.7.9,1.4a5.52,5.52,0,0,0,.5,1.2s-.3,3.2,0,3.7.6.7.8,1,0,.2.8.8a9.91,9.91,0,0,0,1.4.9c.5.3.5-.5,1.4,1.1s1.6,1.5,1.7,2.4a7.75,7.75,0,0,1,.1,2.2c-.1,1.1.2.8-.1,1.8s-.6,1-1.1,1.9-.5,1-1.2,1.5-1,.2-2.2,1.4a34,34,0,0,1-2.8,2.4c-.7.5-1.2.3-2,.9s-1.1.5-1.6,1.1-.7.5-1.2,1.8a18.48,18.48,0,0,0-.7,1.9,2.65,2.65,0,0,0-.1,2.2c.5.9.3.3.6,1.7s.5.3.3,1.7a5.48,5.48,0,0,1-1,2.6c-.2.5-1.1-1.4-1.1,1.9s.1,4.1.7,5.1,1.2,1.9,1.2,1.9a8.82,8.82,0,0,1,1.2,1.2c.9,1,.6.8,3.2,2.2s2.6,1.2,3.5,1.8,3.4,2.5,3.7,2.6a20.68,20.68,0,0,0,2.5,0Z" transform="translate(-50.7 -46.6)"/></g><g id="SuedAmerika"><path id="Argentinien" class="cls-14" d="M403.2,666.8l-2.9-1-3.6-.7-1.9-1.9-1.7-1.5s-1.9-1.2-2.4-1.4-3.6-2.2-3.6-2.2L386,657l-2.4-1.7-.8-1.9a9.06,9.06,0,0,1-1.5-2.4,8.72,8.72,0,0,1-.2-2.5s.3-1.5.5-2.2.7-2,.7-2l1.2-2.7,1.2-2,1-1.4-.7-2.5a3.72,3.72,0,0,0-.2-2.7,13.52,13.52,0,0,0-3.1-2.4l-1.9-.8-1.5-.7-.3-.7v-1.2a2.47,2.47,0,0,1,.5-1.5,19.88,19.88,0,0,0,1.5-2.2,13.31,13.31,0,0,1,1.4-2,5.68,5.68,0,0,0,1-1.9s.2-.2.2-1,.3-1.9,0-2.4.5-2.2.5-2.2l1.2-.7-.7-1.2-1.4-.2-1-.8s-.2-.3-.7-1a23.86,23.86,0,0,1-1.2-2.2,12.83,12.83,0,0,1-.8-2l1.5-1.7a28.34,28.34,0,0,0,2.7,1.7,6.59,6.59,0,0,0,1,.3,5.42,5.42,0,0,0,1.5.2l1.4-.3s1.2-1.4,1.7-1.9.7-2.2.8-3.1.7-2.2-.5-3.1l-1.2-.8s3.6-1.5,4.6-1.7a4.31,4.31,0,0,1,2-.3c1.7,0,4.9.2,5.8-.3a11.12,11.12,0,0,0,1.5-1.2c.5-.4,1.4-.2,2-2.4a29.75,29.75,0,0,0,1-4.8l-1.2-3.1-2-1.9s-.2-1.9-1.5-2.5a9.66,9.66,0,0,1-2.4-1.7l-1.4-1.4,1-2.4,4.2.3,2.2,3.1,5.3.3,5.9-1.4,1.2-3.2.7-3.1-9.3-8.3-5.9-2.7-3.7-3.7.2-3.2,4.1-3.9,3.7-2.4,2.5-4.9-2-5.1-1.9-.7-1.5,4.8-3.4,3.6-4.4,1.4-5.4-2,.2-2,1.5-3.7-1-3.1-2.2-1.7-6.5-1.4-7.6-5.9-4.2-3.1-1.4-3.6-4.8,3.7-5.9-1-6.1,1.4-1.4.7-2.7-2.2-2.7-6.8-1.7-6.6-4.6-6.8-3.9,4.2,2.7,1.9,1.4,5.4.3,8.5-.3,7.1.8,8.3-.5,7.1.7,7.3.5,9.3,2,6.8,1,8-.3,6.8-.5,5.9v3.9c0,.7.5,3.7.5,3.7l1.2,3.9.2,3.1,1,4.1,3.4,2.9,3.9,3.9-.3,2.9,2.2,3.9,1.5,2.5-.8,3.7-1.9,3.4-2.4,1.2,2.4,1.4,3.1,3.2,2.5,6.1,3.1,5.6,3.9,5.9,5.1,3.7,6.3,2,5.4,4.8,1.2,2.7,3.2.5,3.9,2.5,2.4-.7,1.7-.3Z" transform="translate(-50.7 -46.6)"/><path id="Peru" class="cls-15" d="M294.3,413.8l-4.6,6.5-3.1,7.5,3.9,3.6-.7,3.9-3.9,4.9,1,4.6,2.2,3.6,2.9,2.4,3.7,5.9,3.4,7,3.4,6.1,3.2,5.1,2.7,4.9,2.5,6.3L314,490l6.5,3.6s6.5,3.9,7,4.6,5.8,4.8,5.8,4.8l1.4,1.5,3.2-4.6,4.1,5.6,4.1,11.4,3.7,5.3,4.2-1.7,4.2.2,4.4.7,5.8-3.1,1.4,3.1,11.5,8.7,9.8,3.2-.2,3.9-1.7,4.9,5.9,1.5,4.9-1.4,3.6-6.6.8-1.5.7-2.5-.7-2.4-2.7-2.4s-1-.3-2-.5a5.76,5.76,0,0,1-1.7-.5c-.7-.3-1.7-.7-3.1-1.4a15.86,15.86,0,0,1-2.7-1.7c-1-.7-1.9-1.2-1.9-1.2l-1.2-1.2a20.09,20.09,0,0,1-.8-2.9c-.2-.8-.7-2.4-.7-2.4l-1.7-2.9s.2-.7-.3-1a2.62,2.62,0,0,1-.8-1.2l-1-2.7s.8-.3,1.4-.5l1-1.2a3.86,3.86,0,0,1,.2-1.2c.2-.5.7-2.5.7-2.5a2,2,0,0,0,0-1.5c-.3-1,.7.2-.7-2.5s-1.9-3.1-2-3.6l-.2-.5-2.5-1.7-.7-.2s.5-.2-.8,0a14.23,14.23,0,0,1-3.1,0l-1-.5-.3-2s-.5-3.1-1-3.7,3.2,1.9-1.5-1.9-5.4-4.2-5.4-4.2H364a11.47,11.47,0,0,1-2.2-.7l-2.4-1.7a10,10,0,0,0-2.4-1.7,13,13,0,0,1-2.5-1.5l-1.7-3.4s-1.2.3-2-2.5a7.21,7.21,0,0,0-2.2-3.9s-2.5,1-3.2,1.4-1.4.7-1.4.7a3.53,3.53,0,0,1-1,.8c-.8.5-.3-.2-1.5,1.2s-.3,1.5-2.5,2.2a22.53,22.53,0,0,1-2.9.8l-1-1.4-1.5-.8s-1-.2-1-1v-2.4l-3.4-1.9-2,1c-.7.3-.2.7-.7.3a10.83,10.83,0,0,1-1.4-1.9,7.35,7.35,0,0,0-1.4-1.2c-1.2-.8-2.2-1.4-2.2-1.4l-1.4-.8a3.87,3.87,0,0,1-.8-1.4c-.2-.5-1-1.2-1.2-2.2s-.2-2.4-.3-3.1a21.86,21.86,0,0,1-.3-3.6c0-.7,2-6.6,2-6.6l3.2-1.2a8.33,8.33,0,0,1,1.4-.7c.5-.2,1.4-.5,2-.7a9.15,9.15,0,0,0,2.5-.7,10.59,10.59,0,0,0,1-.7l1.4-3.2-1.7-4.4-2.4-1s1-.3-1.4,0-3.4.5-3.4.5l-1.7-.3-1.5-1.2-1-1.2a14.76,14.76,0,0,0-2.2-3.4c-1-.8-6.6-6.5-6.6-6.5l-3.2,1.2a17.6,17.6,0,0,1-3.2-1.2c-1.4-.7-1.5-1.2-2.5-1.5s-5.3-1-5.3-1Z" transform="translate(-50.7 -46.6)"/><path id="Brasilien" class="cls-16" d="M329.2,438.4l-3.1,1.5-3.9,1.5-1.7,2.5-1.4,4.6-.5,5.4,1.7,3.9,1.9,3.2,2.5,2.5,2,1.5,2-1.4,3.9,1.5.2,2.9,1.7,1.5,2.5-.2,2.7-.8,3.2-2.5,5.3-2.2,3.4,2,.2,2.9,3.1,4.4,2.7,2.5,3.6,1.2,2.9.2,4.8,3.6,3.6,1,3.7,5.9.7,2.5,4.8,3.2,3.9,1.9a9.41,9.41,0,0,1,1.4,2.7,37.21,37.21,0,0,0,1.2,4.4v1.9s-.8,1.2-1.2,1.7-1.4,1.9-1.4,1.9l.3,2.7a19,19,0,0,1,1.7,2.5c.5,1,2,3.6,2.2,4.1a16.81,16.81,0,0,1,.3,2.7s1.7,2,2,2.2,2.7,1.5,3.2,1.7l3.1,1.2s3.1.5,4.1.8l1,.3,2,5.1v3.2l1.7,2.2.3,2.9-.8,3.9-2.2,2.5-2.2,1.2-2.5,2.5s-1.9,1.9-1.7,2.5a13.55,13.55,0,0,0,.5,1.4l1.2,2.9s1.2.7,1.4,1.2,1.7.7,2.4,1.5a9.05,9.05,0,0,0,1.9,1.5,10.2,10.2,0,0,1,2.5,1.5c.3.5,1.7.8,1.7.8l1.9.8A7,7,0,0,1,413,565a7.2,7.2,0,0,0,1.2,1.9,15.51,15.51,0,0,0,1.4,1.4l1.4.2a1.71,1.71,0,0,0,.8-.8,16.61,16.61,0,0,1,1.2-2l.7-1s-.5.3,1-1a30.42,30.42,0,0,1,3.1-2.5,3.18,3.18,0,0,0,1-1.4,12.9,12.9,0,0,0,1-2.2c.2-.8.3-.8.7-2.7a12.55,12.55,0,0,0,.3-3.6c0-1.2-.5-1.5.3-2.2a6.58,6.58,0,0,0,1.4-1.5,8.41,8.41,0,0,0,1-2.2,5.23,5.23,0,0,0,.5-2.7c0-2,.7-2.5.2-3.2a2.94,2.94,0,0,1-.7-1.7c-.2-1-.5-.8-.2-2a16.57,16.57,0,0,1,1.2-2.9l3.1-2.7,3.2-1.5a12.55,12.55,0,0,0,2.2-1.2,9.23,9.23,0,0,0,2-1.4,11.51,11.51,0,0,0,1.7-1.7l2.4-1.5h2.2a8.82,8.82,0,0,1,2.4.3,4.35,4.35,0,0,0,1.5.3,15.94,15.94,0,0,0,2.9-1.9,20.54,20.54,0,0,0,2-1.9,6.09,6.09,0,0,1,.7-1.2c.3-.5,1-3.6,1.5-4.1s.3-.8.7-1.4.3-1.4.7-2.4a27.27,27.27,0,0,1,.8-3.4,40.05,40.05,0,0,0,1.2-4.2,5.11,5.11,0,0,0,.5-1.5,28.08,28.08,0,0,0,.7-4.6c.2-2.5.2-3.4.2-3.4v-2c0-1,.2-1.2.2-3.4a26.47,26.47,0,0,0,0-4.1,26.69,26.69,0,0,1-.3-3.2,6.09,6.09,0,0,1,.7-2.7c.7-1.2.5-1.5,1.7-2.9s1.2-1.7,1.9-2.4a16.86,16.86,0,0,0,2.7-3.1c1.7-2.2,2.2-2.7,2.5-3.4a42.44,42.44,0,0,1,2.9-3.9c.8-1.2,1.2-1.9,1.9-2.9s1.2-1.2,1.5-2.2a26.76,26.76,0,0,0,.3-6.5c-.2-1.5-.3-3.4-.3-3.4l-1.5-2.2s.7-.5-.7-1.2.2-.3-2.4-1a16,16,0,0,0-3.1-.7h-.7l-4.2-2.7a10.49,10.49,0,0,0-1.9-1c-1.7-.8-1.9-.5-2.5-2a45,45,0,0,0-2.5-4.2h-2.7l-3.4-1s-3.2.2-4.1.2-3.7-.2-4.8-.2h-2.7l-2.2,1.2-1.7.2-.5-1.5.7-2.7-1.2-1.4-3.2-1.2-1.4-1.4-3.1-2.4-2.5.8-1.5,1.9-2.2,1.5-1.5,1.2s-1.9.5-2.5.7-1-1.4-1-1.4l1.5-1.5,2-2.4-.3-1.5-1.5-1.2-1-.8-1.5-.3s0-.7-1.5-.3-1.5.3-1.5.3l-1.7,2a18.25,18.25,0,0,0-1.5,1.5c-.7.8-.7.8-1.4,1.5a7.07,7.07,0,0,1-1.2,1l-1.7.8a5.4,5.4,0,0,1-.7-1.4c-.2-.7.8-2.5.8-2.5a4,4,0,0,1,1.2-1.4,15,15,0,0,1,2-1.4c.7-.3,2.9-1.4,2.9-1.4l1.2-1a14.61,14.61,0,0,0,.3-3.4c-.2-.7.2-1.2-.3-1.7a6.57,6.57,0,0,1-.8-2.4l-1.2-3.1a10.5,10.5,0,0,1-.3-1.9c0-.7-1.9-3.1-1.9-3.1H408l-1.9,2.5-1.7,3.1-2.4,1.9-3.2.2-2.9-.2-2.4-.5H392l-2.4,1.2s1,0-3.1.8l-4.1.8-.7.2-1.7.7-1.5.5h-2.8l-1-.3-1.4-2.7-.2-3.1v-3.6l.5-1.5a10.93,10.93,0,0,0,.3-1.7,4.17,4.17,0,0,0-.5-1.4l-1.7-1.5s-.3-.3-1,0-1.9,1-1.9,1l-.7.3-.7.3-1.9,1.2h-1.4a7.66,7.66,0,0,0-2.4,1,4.68,4.68,0,0,1-2,.8l-1.4-1-1-.8h-1.7a5,5,0,0,0-.2,1.7c0,.7-.2,1.5-.2,2.9s2,2.9,2,2.9c.2,1,1-.3.2,1a8.7,8.7,0,0,0-.8,1.4l.2,1.2-1.2,2.2-1.9,1-2,1.4-2.7.2-1.5-1.5-2-1-1.4-1.7v-1.9l-1.9.2-.7,1.4H338l-2.4-.3-.7.2-1.2,1.5-.2,1.2.2,1.2,1.7,1.5a14.58,14.58,0,0,0-1.5,1.2l-1.2,1.2a2,2,0,0,0,.3,1.5c.5.8.7.5.7,1.4v1.7a1.55,1.55,0,0,1,.3.8,4,4,0,0,1,.3,1.2,7.46,7.46,0,0,1,.3,2.4,5.57,5.57,0,0,1-.2,2,13.8,13.8,0,0,0-.3,2,7.58,7.58,0,0,1-.5,1.4s-.5-2.4-.5.7v3.9l-1.4,1a1.15,1.15,0,0,1-1.2-.2c-.5-.5-1.4-1.7-1.4-1.7Z" transform="translate(-50.7 -46.6)"/><path id="Venezuela" class="cls-17" d="M294.2,413.7l2.4-3.2,3.4-2.9.3-1.9,1-2s.7-1.5,1-2.2,1.2-4.2,1.2-4.2l-.3-1.4-1-2s-.3-2.5-.3-3.4a14.08,14.08,0,0,0-1.2-3.4l1.4-2.2,4.1-3.4,1.4-1,1.5-1.4,2.5-4.2.7-1.7,1.2-1.7,3.1-1.5,4.1-1,1.5-1.7,2.9-2.4,2-.5,1.4.7-.3,2-1.9,1.4-.3,1.9.2,2.4-1.5,1.7s.7,1.9,1,2.5,1,2.2,1,2.2l1.4-.5,1.5-3.1.2-2.9-1-1.2,1.5-1.4,1.7-1.4a3,3,0,0,1,1-1c.5-.2,2.7-.5,3.4-1s3.7,1.9,3.7,1.9l1.4,2.4,1.5.7,3.9.7,2.7,1.5,3.4.5,1.9-.3H358l4.4-.2,1.2,2,5.4,1.5s2,1.9,2.7,1.9a8.13,8.13,0,0,1,2.4,1,4.87,4.87,0,0,0,.8,1.2c.7.7.7,1.2,1.4,1.9s1.5,1.7,1.5,1.7a3,3,0,0,1,1.4,1.4c.5,1,.7,1.7,1.2,2s.7.2,1.5,1.4,1.2,1.9,1.2,1.9l1.5.7,1.9,1.4a6.24,6.24,0,0,1,2,.3,45.85,45.85,0,0,0,5.3.7,5.75,5.75,0,0,1,1.7-.7h6.1l2.2,1.2.7.5s.2-.3,1.5,1.4a29.84,29.84,0,0,1,2.4,3.4l-.7,2.5-2.2,2.2-.2,2-1.5,1.4-1.9.7-1,.5-1.5.2-2.5-.3-1.9-.5a22,22,0,0,0-3.2-1.2,11.55,11.55,0,0,0-2.4,1s-1.4.8-1.9,1.2l-.5.3-2.2.7s-2.4.3-3.1.3H381a4.1,4.1,0,0,0-2,.7s.2.3-1.5.8-2.2.3-2.2.3a2.43,2.43,0,0,1-.5-1c-.2-.7-.5-2-.5-2l-.3-1.2-1-3.3v-1.9l.2-1.9v-2a1,1,0,0,0,0-1,15,15,0,0,0-2.5-1.9l-1.4.7s.2,0-.8.7a7.84,7.84,0,0,1-2,1l-1.5.7a9.18,9.18,0,0,0-2,.2c-.7.2-1.5.5-1.5.5l-1,.5-1,.2s-.5-1.5-1.2-1.4-1.4-.2-1.9,0a2.21,2.21,0,0,1-1.2,0l-.3,3.2.3,1.2.5.8s.2.3.5.8-.3-1,.3.5a10.66,10.66,0,0,1,.8,3.4l-1,.2-.5,1.7-1.9,2.2-.7.3-2.4.5-1.7.2h-1l-1.2-1.2-1.2-1.7-.7-1-.7-1.2-.8-.7-1,.7-1,.3a1.68,1.68,0,0,1-1.5.3,16.68,16.68,0,0,0-3.1-.2h-3.3a3.2,3.2,0,0,0-.7,1.9l-.2,1.5.8.7.5,1,.2.7-1,1s-.3,0-1,.7a9.59,9.59,0,0,0-1.4,2.4l1.7,1.5s.5,0,.8.8a4.2,4.2,0,0,1,.2,1.7s.7,2,.8,2.5a4.86,4.86,0,0,1,.2,1.4,2.43,2.43,0,0,1-.3,1.9,12,12,0,0,0-1.2,3.2v2l-.8,1.5c-.8.3-2.2-.8-2.2-.8s.3-1.2.5-1.9a9.69,9.69,0,0,0,.2-2l-.8-1.5-1.2-.8-1.4-1.2-2,.8-2.7.3-1.2-.7-1.2-.7-2.7-.3a7.14,7.14,0,0,1-.5-1.7c0-.5,0-1-1.2-2.4s-1.7-1.7-2.4-2.7-1.4-1.9-1.4-1.9l-2.5-.2-.5-1.5h-1a3.54,3.54,0,0,0-2.4-.3l-1,.3h0s2.7-.8-1.7-1.2l-4.4-.3-1.2-.2-.7-1-1-.7Z" transform="translate(-50.7 -46.6)"/></g><g id="Afrika"><path id="Suedafrika" class="cls-18" d="M674.9,447.8l18-.1,1.9,4.6,1.7,2.9,1,1.2,1.6.9,1.7-.2,2.5-1.2,1.1-1.5a6.56,6.56,0,0,1,.9-2c.6-.8,1.5-1.9,1.5-1.9l.9.1,1.8,1.1,1.2.3c.5.1,3.4,1.4,3.4,1.4l.3,10.1.6,1.6,1.4,3.4.5,1.2,1.5.6,1.4-.5.8-.7.8-.2,3.8,1.6,1.7.6,1.9-.1,1.7,1.4,3.4,1.4,1.5-.1,1-.9,1.4.8,2,2.2L741,478l2.8,1.7,1.7.2,1.1-.3.7-.8.3-1.2-.3-.9-.6-.3-4-3.2-2.2-3.7.6-3.4,1.5-2.3V461l.2-1.7,2.3-1.2,4.1-1,2.4.1,8.5,5.1,1.5,1.8-1.1,2,.1,2.4,1.6,2.5-.8,3.2-.7,5.3-1.4,3.7,1.8,1.2,2.8,1.4,1.7,1.5.5,2.6-.7,3.2,2.5,2.3,3.7-3.7.6-3.6-1-3.7-3.5-3.5-.2-8.6,6,.6,5.9.8,11.3-4.6,1.4,16-2.3,6.3-1.2,1.9a16.47,16.47,0,0,1-1.5,1.7c-.3.3-2.9,1.8-2.9,1.8l-1.4.8s-.2-.1-1.5.6-1.5.8-2,1.1l-1.6.8-.8.5-1.8.7c0,.9.5.9.1,1.5a10.46,10.46,0,0,1-1.2,1.6s.1-.2-1.1.8-1.4.7-1.7,1.2a8.31,8.31,0,0,1-1.2,1.7c-.3.3-.6.3-1,.8s.5-1.1-1,1a19.83,19.83,0,0,0-1.5,2.2s-.1.9-.2,1.4,0-.3-.1.5a3.08,3.08,0,0,0,0,1.9c.3.8-.1,0,.3.8s.9.6,1.2,1.8a22.78,22.78,0,0,0,1.5,3.1,12.89,12.89,0,0,1,.5,2.4v1.9s.5-.1-.1,1a18.55,18.55,0,0,1-1.7,2.9,11.39,11.39,0,0,1-1.4,1.5s-.8.5-1.2.8-.9,0-2,.9a10.44,10.44,0,0,1-2.3,1.4l-1.8.6-.8.9-1.2,1.8v1l-.7,1.6a1.68,1.68,0,0,0,.2,1.8c.5.7.5-.3.5,1a16.13,16.13,0,0,0,0,2.2,6.82,6.82,0,0,1,.1,1.2,1.45,1.45,0,0,1-.6,1.4,7.61,7.61,0,0,0-.7.9l-.9.6-.6.8a27.27,27.27,0,0,0-2,2.8c-.4.8-.8.6-1,1.4s-.1.7-.7,1.1.1.1-.6.5-.9.7-1.6,1.4.1-.3-.9,1-1.6,2.2-1.6,2.2a4.38,4.38,0,0,0-1.2,1.5c-.8,1.1-.6.7-1.2,1.6s.2,0-.7.9-.9,1.1-1.7,1.5a12,12,0,0,0-2.3,1.1c-.8.6-1.2.2-1.8,1.5a3,3,0,0,1-1.7,1.8c-1,.6-.5,0-1.9.9a10.46,10.46,0,0,0-1.9,1.2,10.66,10.66,0,0,1-3.1,1.4s.1,0-.6.2-2.3.7-3.3,1a21.07,21.07,0,0,1-2.2.5l-2.8-.5s.2-.1-.9-.3-.2-.6-2.7-.5-2-.1-3.1.6a4.58,4.58,0,0,1-2.2.9c-.6.1-2.8,0-3.3.2s-.1.5-1.4.7a15.14,15.14,0,0,1-2.9.1,3.52,3.52,0,0,1-1.6-.5,7.51,7.51,0,0,0-.8-.7,11.15,11.15,0,0,1-1-.9l-1.6-1.6-.1-1.1v-1.6c0-2.1-.2-2.9.1-3.3s.9-.8.9-.8l.2-2.5a11.67,11.67,0,0,0-1.4-.9,4.21,4.21,0,0,1-1.2-1.2,13.38,13.38,0,0,1-.2-2c0-.9.2-.9-.8-2.2s-1.2-.9-1.6-1.8a10.44,10.44,0,0,0-1.1-2.4c-.7-.8,0-.2-1-1.4a8.83,8.83,0,0,0-2.3-1.9l-.9-1.4a12.1,12.1,0,0,0-1-1.9,5.26,5.26,0,0,1-1-2.8v-2.3a6.41,6.41,0,0,0-.2-2.7,6.47,6.47,0,0,1-1.1-2.5,17,17,0,0,1-.1-3.8l.5-1.5a8.75,8.75,0,0,0,.2-2,19.75,19.75,0,0,1-.8-2.6,18.56,18.56,0,0,0-1.8-4.4c-.6-1-.9-1.1-.9-1.6s-.2-1.6-.2-2.5a5.14,5.14,0,0,0-.6-2,1.12,1.12,0,0,1-.9-1.1c-.1-1-1.9-3.5-1.9-3.5s.2-.9-.3-1.2a6.34,6.34,0,0,1-1.2-1,8,8,0,0,1-.8-1.2s-1-2.2-1.2-2.6-1.1-2.2-1.1-2.2,0,.1-.1-1-.1-2.5-.1-2.8a2.38,2.38,0,0,0,0-1.9,21.39,21.39,0,0,1-1.1-2.7,8.38,8.38,0,0,1,.2-1c.1-.3.8-2.5.8-2.5a13.5,13.5,0,0,0,.9-2.7c.1-.9.5-1.7.5-2.2s-.1-.2.7-1.8,1.5-2.4,1.8-3.2a20.28,20.28,0,0,1,1.2-2.3s1.2-1.5,1.5-2,.5-1,.7-1.5,1.6-4.4,1.6-4.4l-1.1-1.2a9.08,9.08,0,0,0-.8-1.7,4.45,4.45,0,0,1-.9-2c-.1-.8-.2-2.3-.2-2.7s.2.6.1-1.9a18.68,18.68,0,0,1,.2-4,6.25,6.25,0,0,0-.1-1.2,34.82,34.82,0,0,0-2.4-2.7s-.7-1.1-1.1-1.8C675.8,450.3,674.7,448.3,674.9,447.8Z" transform="translate(-50.7 -46.6)"/><path id="Madagaskar" class="cls-19" d="M827.6,476.7l1.4,2.2,1,3.6.6,2.6.3,2-.8,2.2-.6,3.6L828,498l-2,5.3-2.3,5.3-2,5.4-1.8,4.5-.9,5.2-.8,5.3-2.6,3.7-3.7,2.2-5,.1-3.4-2-1.4-2.5-.7-3.4-.9-4,1-3.4,1.5-2.9,1.8-3.7,2-1.5-.5-6.3v-7.5l1.4-4.5,5-.5,5.1-3.4a33.64,33.64,0,0,1,2.7-3.6c.5-.2,1.9-1,1.9-1l2.3-1.7.9-2.8Z" transform="translate(-50.7 -46.6)"/><path id="Kongo" class="cls-20" d="M664.9,410.7l24.9-.1,1.4-1.1.1-1.5s-7.9-10.1-7.8-13.6c0,0,.1-6.7,4.3-8.6l6.2-.3,4.1-.9,4.8-4.6,3.4-1.2,4.4-2.9,4.5-4.2,3.5-1.4,2.7,1.9,1.1,3.6.8,5.8,3.2.6,2.2,2.3,1.9,3.4,1.7,2.6,2.5,1.8,2,1.2.6.7,1.1,5.9,1.1.5,1.6.5,2-1.1,2-1.4,2.7,1.5,3.2,4,2-.5,2.2-.3,3.4.1,2.4-1.1s2.3-.3,2.9-.3,2.6,1.9,2.6,1.9l1.6,4.8.3,4.3-1.9,3.2-2.4,3.1-2.6,1.5-2,2.4-2,1.6L754,426l-1.9,1.9-.3,2.9s-1,1-1,1.5-.7,3.6-.7,3.6l-1.4,2.9-3.5,1.6s-.1,1.1-.2,1.5a14.15,14.15,0,0,0,.1,2.8,18.52,18.52,0,0,0,.9,2.8l2.7,5.2,1.1,2.6,1.4,2.2h-3.8l-4,1.7-.9,2,.3,1.5-.7,1.8-.9,2.2-.9,2.7,1,2.4,2.8,2.8,2.8,2.2.3,1.8-1.2,1-2.6.3-1.6-1.4-2.3-1.8-.6-1.5-2.2-1.2-1-.7-.7.7-3.2-.7-2.6-1.7-2.6-.8-2.6-.5-2.5-1.4-1.9.3-1.4.9-1.7-.3L715,467l-1.1-2.9-.1-5.1.1-5-6.8-3.3-1.4.9-1.6,2.7-2.2,2.4-1.6.8h-1.5l-1.7-1.4-2.2-2.2-1.9-3.3-1-3.5-17.7.5.3-2.3-.2-1.7-1.6-2-.8-1.5-.1-1.4-.8-.9-.1-.8s0-.7-.5-.9a4.3,4.3,0,0,1-1.1-.8l-.9-.6a10.83,10.83,0,0,1-1.2-1.5,10.59,10.59,0,0,0-1.9-2.3,30.35,30.35,0,0,0-2.9-1.8s-.2,1.7-.1-.6.1-2.7.1-3.7-.2-2.3-.2-2.8-.2-1.2.1-1.7.5-.5.8-1.2.9-2.2.9-2.2a7.3,7.3,0,0,0,.4-3.9Z" transform="translate(-50.7 -46.6)"/><path id="Ostafrika" class="cls-21" d="M765.8,493.2l1.5,1,1.4-.2,1.2-1.1,1.4-1,.6-1.5.3-1.2-.1-1.6-.6-1.7-.3-1.6-.5-.9-1.6-1.1-1.1-1.2-.3-1.2V474l.1-2.2h2.7l3.8.8h2.3l1.5.7,3.6-1,3.1-1.1,2.5-1.1,3.2-1.1.3-.5-1.9-5.4-1.4-2.6-1-2.6-.9-3.5-.3-2.9-.1-5.7,1.2-3.5,1-4,2.3-3.1,3.3-4.8,4.3-3.6,3.5-4.4,4.9-6.3,4.9-3.8,3.8-2.8,2.8-2.4,1.5-.6,5.4-8,2.4-6.2,3.8-6,2.2-5.8,2.5-4.6.7-4.9-1.6-4.4s-.3,2.6-15.4,5.4l-5.4,1-1.9.5-2.6.1-2.5-1.4-2-1.7a3.26,3.26,0,0,1-.6-1.2c0-.5-.2-2.8-.2-2.8l-2.2-3.5-3.1-4.2-3.3-3.3-4.1-2.7-3.4-2.8-2.4-2.5-.5-5.3-4.1-5.5-3.1-2.7-1.7-4v-7.2l-5.5-7-6.6,5-1.5.7-2.8-.9-33.5.1-.2,8.6-2.8.6-.5,18.7-3.4,1.8-4.1,10.5,4.5,9.6,2.6,2.5.7,3.6.8,4.3,3.2,1.5,5.7,7.5,5,3.8,1.4,6.6,2.7.9,4.1-2.5,2.7,1.5,3.2,4,4.2-.8,3.4.1,5.3-1.5,3.3,2,.8,4.1.5,4.9-3.1,5.3-3.3,2.6-3.4,2.8-4.2,2.3-2.6,1.8-1.4,4.9-1.6,5.2-4,2.9.2,5.4,1.8,4.2,2.5,4.4,1.4,2.2,2.7,2.2,2.8,1,4,2.8,1,2.2-1,1.6.5,2.5,1,2.2-.2,2.6-1,5.3-1.2,4,3.3,1.8,2.3,1.8.6,2.2v2.2Z" transform="translate(-50.7 -46.6)"/><path id="Aeghypten" class="cls-22" d="M725.8,320.4l34.3-.3,1.5,1,7.8-5.5v-1.7l-2.6-5.6-2.7-4.3-2.2-4.9-2.3-3.1-.9-3.1L756,290l-1-1.4-.1-1.9,1.4-.8,1.2.8,1.7,1.4.7,1.7,2,2.2,1,1.3.5.1.5-4.3.8-1.3-4.2-8.5-3,.9-2.9.2-4.5-1.9-7.4,2-2.5-.9-5.9-.4-4.2-.6-5.4-1.1-10.4-5.8-6.5-.1-1.8,2.7.6,5-3.6,3.9h-2l-4.8-2.5-7.7-1.4-3.4-5.6-5.3-1.5-8.3-1.6-2.8,4-2,.8-.8,4.8s-2.1,3.7-2.2,3.9a21.86,21.86,0,0,0,.3,2.8l.4,6.3.8,2.5-2,4.1,1,4.8,2.4,3.1,5.9,3.6,2.5,3.1,5.3,1.3,4.7.9,2.6-2,4.2.8,4.3,1.2,3.7,2.2,2.9,1.4,4.8,3.2,3.7,1.9,4.2,2.4,2.7,2,2.6,1.4.7.3s.7-1.4.9-1.7a16.31,16.31,0,0,1,2.9-1.2Z" transform="translate(-50.7 -46.6)"/><polygon id="Nordwestafrika" class="cls-23" points="614.3 364 638.5 364.1 639.7 363.3 640.4 361.4 633.6 350.3 632.4 347.7 633.7 342.9 635.5 340.1 638.3 338.7 646.4 338.3 652 333.3 656.5 331.6 662.7 326.5 667.6 323.5 668.2 323.2 663.8 313.6 668.2 303.4 671.2 301.7 671 285 645.9 270.3 637 268.3 634.7 270 629.1 268.9 624.6 267.8 621.4 264.7 616.4 261.6 612.8 256.4 612.3 253.4 614.7 249.5 612.6 237.7 615.1 233.6 615.2 229.4 618.3 227.6 620.9 223.9 616.1 218.6 616 216.8 618.2 212.6 615.8 210.3 617 208.6 616.9 207.4 612.7 205.1 607 207.7 592 207.9 587.2 207.2 579.1 209.1 567.8 215.8 561.2 215.9 554.5 212 552 213 549.1 218.5 543.5 221.9 540 224.3 538.2 227.6 536.6 232.2 536.1 237.7 531 242.5 527.3 244.7 522.8 247.3 519.7 252.1 515.6 257.3 512.9 263.5 509.1 268.6 506.6 272 504.7 277.1 506.3 281.2 508.7 289.5 508.2 294.5 507 298.4 505.7 301.5 503 304.4 503.3 306.4 506 310.5 504.7 313.1 504.3 316.4 506.3 318.8 509.1 320.7 510.6 321 512.1 323.2 514.4 326.9 517.2 329.5 519.7 336.4 523.7 341.6 528.4 346 534.1 350.3 537.3 351.8 541.1 352.8 544 352.9 546.1 352.2 550.5 351.1 554.2 350.3 555.8 348.6 559 349.1 560.1 350.9 563.4 351.1 569.2 349.8 574.7 348.1 582.7 344.7 587.9 343.2 593.9 346.3 596.9 350.1 597 352.5 601.1 352.8 606.9 352 611.3 354.4 613.1 357.5 614.3 364"/></g><g id="Europa"><polygon id="Island" class="cls-24" points="511.1 88.5 512.2 85.2 515.1 83.8 517.9 83.6 520.5 81.9 523.8 82.6 527.3 83 531.7 80.8 535.1 81.1 537.6 82.8 539 84.7 537.4 86.4 535.4 87.5 532.8 89.4 528.6 90.5 524.4 91.3 521 92 515.3 88.8 511.1 88.5"/><g id="Grossbritannien"><path class="cls-25" d="M596.2,176.8l-.1,1.9,2.1,1.5-1.4,1.4-1.1,2.1-.8,1.4.3,1.6s.7.8.7,1.1.9.8.9.8l1-.7s-.2-.7.2-.6.8.2.8.2-.2.2.4.1a1.55,1.55,0,0,0,.8-.3v-.4l.2-.3s-.8.3.4-.2l1.3-.5.6-.5a2.18,2.18,0,0,1,.6-.1h.7l1,.1.3.1s.6.1.6-.2.5-.9.5-.9a5.38,5.38,0,0,0,.8.1h.6c.3-.3.4.3.3-.8l-.2-1.2.5-1.5.1-.5s.1.3,0-.3a7.47,7.47,0,0,1-.1-1.1l.5-.4.4-.3.3-1a1.75,1.75,0,0,1,.5-.1l.4-1.9.3-.4a1.54,1.54,0,0,0-.2-.8s-.2,0-.4-.3.1,0-.3-.3-.1-.5-1-.4-1.4.1-1.4.1h-.8a8.37,8.37,0,0,0-1.2-.1,3.3,3.3,0,0,1-1.1-.2l-.4-.1-.7.2s-.3,0-.7.7a4.78,4.78,0,0,1-.6,1.1c-.2.3.3.1-.2.6a1.4,1.4,0,0,1-.9.6,2.64,2.64,0,0,1-.7.1,1.58,1.58,0,0,1-.4-.1l-.3-.1a.3.3,0,0,0-.4-.3c-.4.2-.7.3-.9.4s-.8.5-.8.5Z" transform="translate(-50.7 -46.6)"/><path class="cls-25" d="M614.2,172.1l.1-1.2v-2.4a3,3,0,0,0-.4-.3l-.5-.5-.5-.2s-.3.4-.1-.3a9.33,9.33,0,0,1,.5-1.4l.2-.3a7.28,7.28,0,0,0,.6-.7,3.08,3.08,0,0,0,.4-.9c.1-.2.3-.8.3-.8s.2-.3.6-.8l.4-.5h0c.7-.1.3.3.7-.1a3.63,3.63,0,0,0,.7-.9,3,3,0,0,1,.3-.6,3,3,0,0,0,.6.3l.3.1c.3.1,0-.3.3.1s1-.2.3.4l-.7.6a2.19,2.19,0,0,1,.3.8c0,.3.1.3.1.3l.3.5s-.5.3.3.3a4.88,4.88,0,0,0,1.4-.2l1.5-.3s.2-.2.3.2l.2.3s-.4.8-.7.9a3,3,0,0,0-.8.8,5,5,0,0,1-.8.6,6,6,0,0,0-.6.7,5.9,5.9,0,0,0-.4.8c-.1.2-.3.5.3.8a3.71,3.71,0,0,1,.9.6l.8.8,1.4.1a2.14,2.14,0,0,1,1,1.2l.1.3.5.7,1.2.8a8.72,8.72,0,0,0,.6,1.3l.4.5a3,3,0,0,1,.3.6l.2.3.8.2.1.4a9.51,9.51,0,0,0,.1,1.4,5.1,5.1,0,0,1,.1.9l.5.3.6.8a11.61,11.61,0,0,1,.9,1.4c.2.3,0,.1.3.8a8.33,8.33,0,0,1,.4,1.4l.6.1.7-.1.4-.5s.1-.2.6,0a6,6,0,0,0,1.6.2,3,3,0,0,1,.7.8c.1.3,1.1.3,1.1.3l-1.8,1.2a3.75,3.75,0,0,0-.8.1c-.3.1-.7.2-.7.2s.4.1-.1.4a4.52,4.52,0,0,0-.8.6l-.7.7v.4l-.1.7s.3-.2.4.3.4.3.4.6,0,.2.2.5.8,0,.2.3a2.71,2.71,0,0,1-1.1.3h-2.6a1.56,1.56,0,0,0-.9.1,6.17,6.17,0,0,1-1.8.2c-.4,0-.6-.2-1.1,0l-.5.2-.4.6s.6.3-.4.2-1.6-.6-2.4-.3-.8.3-1.1.3-.8-.1-1,.2l-.3.3-.5.5a17.78,17.78,0,0,1-2,.3h-1.8l-.3.1s-.1,0-.4.3a5.55,5.55,0,0,1-.8.6,3.34,3.34,0,0,1-1.2.5l-.4-.6s-.4-.8-.2-1a2.83,2.83,0,0,1,.6-.3l1.2-.5.3.1,1-.2.8-.8s-.1-.9.8-.5.6.4.9.4.8.2,1.2-.3a1.93,1.93,0,0,0,.3-.9s0-.1.4,0,1.3.4,1-.1-.3-.8-.7-.8a2.64,2.64,0,0,1-.9-.6h-3.1l-.3-.7a.62.62,0,0,0-.5-.6c-.5-.1-.4,0-.8-.1l-.3-.1-.2-.8.3-.2.5-.2.3-.6,1.3-.8s.8.2.1-.8-.8-.4-.7-.9.2-.7.5-.8a3.22,3.22,0,0,1,.8-.1l.5-.3,2.2-.3s.9.1,1-.3a3.75,3.75,0,0,0,.1-.8c.6-.5,1.1-.6.8-1.1s-.6-.4-.6-.8a1.54,1.54,0,0,0-.3-.7,5.34,5.34,0,0,1-.3-1.3s.3.2,0-.3a7.91,7.91,0,0,1-.5-1s.4-.3-.1-.7a1.48,1.48,0,0,0-.8-.4,1.74,1.74,0,0,1-.9.1l-.4-.1s.3-.3-.3-.3h-.5s-.2,0-.3.3c0,0-.3.4-.4-.3s.8-.7-.1-.7a4.11,4.11,0,0,0-1.4.2Z" transform="translate(-50.7 -46.6)"/></g><path id="Westeuropa" class="cls-26" d="M613.9,200.7l-.5.5s-.2.7-.5.8a.78.78,0,0,0-.3.7c0,.3-.3.6-.1.8a1.27,1.27,0,0,0,.6.4c.3.1.7-.1,1.1.1a1.55,1.55,0,0,0,.6.2l.4.3.3.1,1.1.5.7.1,1.2.3.4.3.3.3.3.2a6.12,6.12,0,0,1,.6.5l1-.1c.2.3.2.2.2.5a1.08,1.08,0,0,1,.1.6v.3l.1.2,1,.7s-.1-.5,0,.3.2.9.2,1.2a5.38,5.38,0,0,1-.1.8l.6.5s0-.1.1.2a1.7,1.7,0,0,1,.1.7c0,.3-.1,1.4-.1,1.4a5.47,5.47,0,0,1,.2,1.2,4.14,4.14,0,0,1,.1,1c0,.2-.9.8-.9.8-.1.3-.1,1.1-.2,1.5s.1.1-.1,1.1a5.84,5.84,0,0,0-.2,1.5c0,.4.2.5-.1.7l-.6.6-.7,1.6s0,.1-.3.2-.5-.1-.7.2a1.79,1.79,0,0,1-.7.5,4.35,4.35,0,0,0-1.2,0,7.5,7.5,0,0,1-1.2.1s-1,.1-1.5.1a5.16,5.16,0,0,1-1.1-.2,7.72,7.72,0,0,0-1.5-.2,4.54,4.54,0,0,0-1,.1H609l-.5-.8a7.38,7.38,0,0,0-1.2-.2,13.2,13.2,0,0,0-2.1,0c-.9.1-1.5.1-1.5.1h-.6l-.4-.5-.2-.6a4.07,4.07,0,0,0-1-.2,2.53,2.53,0,0,0-1.3,0c-1,.2-1.8.2-2,.3a4.91,4.91,0,0,1-1.1.1c-.5.2-1.1.2-1.4.5s-.9.3-1,.5a4.08,4.08,0,0,0-.2.7l-.2.6s.2.1-.1.5-.2.1-.3.3-.5.5-.6,1-.3.3,0,.7.5.7.5.7l.5.5s.1-.1.1.8a3.83,3.83,0,0,0,.1,1.5l-.5,1.5s-1,1.4-.9,2.2.1,2.5.1,2.5l-.9,1.8-.1,1.9a9.08,9.08,0,0,0-.7,1.4,4.92,4.92,0,0,0-.1,1.4c0,.6-.1,2-.1,2.3s1.1.9,1.1.9a.76.76,0,0,1,.6.8,2.65,2.65,0,0,1-.2,1.1l-.8.6-.4.2-.2.2-.1.4s0,.1.2.3.1.1.4.2a1.41,1.41,0,0,1,.5.3s.1.3.3.3a1.7,1.7,0,0,1,.7.1,1.29,1.29,0,0,0,.7.1h1.5c1,0,1.6.1,1.8.1s-.2-.1.2,0a4.53,4.53,0,0,1,1,.5c.5.3-.2.1.9.6s1.3.5,1.8,1l.5.5a5.46,5.46,0,0,0,1.4,1c1.2.7.8,1.6,1.7,1s.3-.6,1.1-1a7.71,7.71,0,0,1,1.9-.8,5.09,5.09,0,0,1,1.4-.4c.2,0,2.9.2,2.9.2a10.7,10.7,0,0,0,3.2-.3,18.41,18.41,0,0,1,2.4-.3c.2-.2,1.1-.5,1.1-1.1s-.4-1,.1-1,2.1-.2,2.3-.3.8.3.9-.2a9.47,9.47,0,0,1,.3-1.9,7.15,7.15,0,0,1,1.2-1.1,9.16,9.16,0,0,1,1.4-1.1,4,4,0,0,0,1.3-.4,17.36,17.36,0,0,0,1.5-1s.5.1-.1-.5a9.23,9.23,0,0,0-1.4-1.1l-.8-.6a1.54,1.54,0,0,1-.2-.8c0-.5-.2-.7.4-.8a6,6,0,0,0,1.1-.3,9.31,9.31,0,0,0,.4-1.4c.1-.6-.6-.2.1-.8s.7-1.1,1-1.4a1.72,1.72,0,0,1,.7-.4c.2-.1,1.1-.8,1.1-.8l1.5-1,.5-.7.7-.4,1.6-.8.6-1.8,1.7-.1,2.8-1v-1.8l-.7-2.8,2.8-1.3,4.9-1,.3,1.1,4.6.1,4.4-2.3.1-1.8-2-1.9-.7-2.4,1.1-2.4-.6-1.1-1.1-2.1-2.5-.6,5.2-5.7,2.3-3.6-.4-1.5-5-2.8-2.5,1.4-2.6-2.3-4.1-1.9-3.3-3.6-3.1.2-.9,3.2-2.9,3.1-4.2,2-3.7-.3-3,2-1.9,1-2.2.2.1-1.1Z" transform="translate(-50.7 -46.6)"/><polygon id="Skandinavien" class="cls-27" points="603.4 96.3 606.2 94.1 609.9 93.9 612.3 92 614.8 90.7 616.1 88.9 618.4 88.7 619.7 87 621.3 86.2 623.1 84.4 624.1 81.6 626.6 78.6 628.8 76.3 632.4 73.5 633.4 70.8 637.4 69.1 640.5 67.8 645.1 67.1 648.8 64.8 654.9 63.1 661.1 63.2 665.9 63 674.1 63.9 677.1 65.2 676.9 65.8 671.4 69.3 671.6 71.6 675.8 75.5 673.7 78.2 676 82.2 676.9 87.7 679.6 92.9 682.7 94.5 680.6 97.5 674.2 102.9 669 104 665.1 105.1 659.1 105.2 652.9 102 652 100.1 652.1 96.1 656.2 90 659.2 84.9 659.1 83 658 81.7 655.1 81.7 652.1 83.9 650 87.2 646.1 90.9 639.9 93.9 638.3 97.7 638 100 639.9 103 644.2 105.1 643.1 108.8 640 111 637.8 112.1 636.3 117.7 634.3 121.1 629.1 124 626 124 622.9 120.9 620.1 113.9 618.2 110.8 615.2 109.2 610 112.8 604.8 113 600.9 110 600.1 107.8 599.2 101.9 600.1 98.1 603.4 96.3"/><path id="Mitteleuropa" class="cls-28" d="M665.6,163.8l-1.7-.2-3.1,2.1-1,2.1-.1,2.4,1.2,4.2.8,3.1-2.2,1.8-3.6.3-6.1,1-1.8,3.1-2.9,1.8-5.4,4.1-.1,1,3.3,3.3,4.1,2,2.4,2.4,2.8-1.6,4.6,2.8.7,1.6-1.2,2.2-1.5,1.8,1.5.5.5-.8,5.8-.1,2.9,2.3s1.4,1,1.4.7a35.76,35.76,0,0,1,2.9-2.7l5.6-1.5,3.9-3.7,8.5-.2L692,204l-4.2,3.4-.2,2,6.2,4,12.8-2,4.6-7-.2-7.6,5.2-4.6-2.8-8,1.2-1.1-3.3-6.5-2.1-4.2-4.8-.8-6.4,4-4.5-1-5.9,1.1-7,2.1-4-2.3-7.8,1.4-3.2-4.1-.1-5.5.1-3.5Z" transform="translate(-50.7 -46.6)"/><polygon id="Suedeuropa" class="cls-29" points="604.3 158.5 599.4 163.7 601.7 164.2 603.4 167.1 602.5 169.8 603.2 172.2 605 173.8 605.2 175.7 611.8 172.8 615 175.7 616.9 180 624.4 185 627.9 185.1 627.8 187.1 632.9 189.9 636.2 193.7 637.8 196.6 637 197.1 631 200.8 625.1 201.9 625 202.9 633.1 206.9 634 207 635 202.3 637.2 201.1 641.3 197.8 640.8 195 639.9 191.9 643.9 192 647.1 192.1 647.1 191 643.7 189.2 637.9 185.9 633.6 182.9 628.7 178 625.8 174.9 622.9 172 622.5 169 624.9 167.6 627 167.9 628 170.7 629.9 171.8 633.1 172.9 634.9 173.6 639 178.1 640.8 179 644.8 179.8 648 182.7 650 185.8 651.1 191.9 653.1 196.5 657 197.9 662.2 198.9 662.2 199.9 658 201 658 202 660.9 206.8 663.3 208.1 664 207.9 664.7 206.9 665.9 204.3 667.1 202.9 667 202.1 666 199.2 664.9 197 663 193.9 663.9 191.8 667.9 192 669.1 189.8 671 189 676.4 188.8 677.5 186.4 676.1 185.4 678.4 183.5 681.8 183.5 682.1 179.8 683.2 176.2 686.4 169.7 682.3 167.5 681.4 163.3 679.9 160.2 676.3 156.4 669.4 158.6 664.4 157.5 661.9 158.6 660.8 157.9 656.1 164.7 643.1 166.8 637 162.8 637.1 160.9 641.2 157.3 637.1 152.9 628.6 153.3 624.9 156.8 619.1 158.2 616.3 161 611.6 158.2 606.2 158.4 605.5 159 604.3 158.5"/><path id="Ukraine" class="cls-30" d="M815.4,246.3l-3.1-4.3-2.9-.9-4.2,2.6-4.1.5-2.8-3.2-2.4-.6-3.3-2.7-1.5-3.5-5.2-2.4-.2-1.5-1.2-3.3-16.6-9.3,1.4-3.5.4-4.2,1.2-3.2-4.3,1-9.3,4.4,5.3,2.4.3,1.3-5.9,2.7-6.3-3,1.2-3.9h-2.8l-1.1-2-2.2-.1-5.9,4.8-2.4,1.9-4.1-2.4-2.2-7.1-3.9-4-6.8,2.3-5.5-1-2.1,1.1-1.3-.8-.2-7.5,5.3-4.6-2.8-8,1.2-1.6-5.8-10.8-4.2-.4-1.1-2.7.3-3.8.9-2.3H709l1.7,1.2,2.1.3,1.4-3.1-3.1-3.8,2.4-2.4,6-.2,5.4.5,2.5-1.4,2.1-2-4.4-1.1v-.8l7-5.6,1.8-2.8-3-1.8-2.9-5.4-.5-4.8-2.7-4.3,2.4-2.7-4.4-3.8-.1-2.2,5-3.5,2.3-.1,5,3.4,7.7-.3,16.1,4.9,3.5,3.2-4,2.9-8.8-.2-7.4-2.2-5.7-.2,4.8,4.5,6.6,6.8,4.6,1.2,2.9-1.1-2.2-2.3-2-.8-.1-.8h2.5l5.5,1,1.9-2.4.2-1.8,2-.9,7-1.9,1.3-2.2-1.5-2v-2l5.3.1.8,1.4,1.7,2.3,2,.3,3.1-.7,7.1-4.1,4.6-1,4.5-.2.9,1,4.9-.1,6.1-.9,6.3-.1s.4-1.7.1-1.7-5.4-1.2-5.4-1.2l-2-1,1.2-1.8,2.6-.1,13.7,4,1.7,4.9,3.2,3.3-2.5,3-2.9,1.5-4.1,2.3-5.4,4.5,1.6,6.1,5.7,6.7-.2,6.4,4.1,4.7-3.2,5.8.6,1.3,4.2,2,3.7.1.7,2.7-4.6,1.6-.3,1,.8,1,5,.8,3.8-1.7,1.2,1.9-1.9,2.7,1.4,2.9,9.9,9.3-4,1.9-1.9.4-1.8-.8-3.5-.9-3.1-1.5-4.1,1.3-2.6,1-5-2.5-6-1.3-4.4-1.4-6.6,3.4-1.4,2.3-1.2,2.2-2.7-.5-1.1,1.2L799,198l.5,3.2,3.7,2.6,3.2,2.9,2.1,2.7,2,1-3,3.6-4.6,5.2,1.4,2.3,2.7,1.4,1.9,4.9,6.3,6.8,1,2.5,1.5.9,1.2,1.9-1.2.6-.7.3Z" transform="translate(-50.7 -46.6)"/></g><g id="Asien"><path id="MittlererOsten" class="cls-31" d="M729.1,230.6l-.7.6-.7.6-.1,2,.6,2.7-.6,3.6,1.9,2.4,1.7,1.9.5,4.8,5.1,5.4,4.5,1.4,6-1.7,5.3,2,6.2.3,3.8-2.9,3.3.1.2,4.1-.6,10-2.4,10.2-2.7,2,5,8.2,1.4,2.9.7,4,2.2,4.2,4.9,6,5.1,6.9,3.4,4.2,1.5,6.2,2.6,5.8,6.5,6.7,6.7,8.9.7,5.9,3.8,11.3,1.6,1.8h2.2l17.3-7.6,9.7-4.5,5.5-5.9,4.4-1.9,7.4-1.4,6.9-9.4,4.3-7.6,3.7-3.6-.2-2.8-4.8-3.7-6.9-4.3-2.7-2.9-.2-4.3-.5-1.5-1.1.7-1.2,2.2s-1.7,2.2-2,2.4-2.3,2.2-2.3,2.2l-1.2,1a6.3,6.3,0,0,1-1.8.8,11.69,11.69,0,0,0-2.2.3,24.89,24.89,0,0,1-3.2.6,3.22,3.22,0,0,0-.6-.2,1.77,1.77,0,0,1-1-.8c-.3-.5.3,1.2-.8-.8l-1.1-2a7.56,7.56,0,0,0,.8-2,8.14,8.14,0,0,0-.8-1.2s-.9-1.2-1.5-1.2-1.5.1-1.8.8a13,13,0,0,1-1.7,2.2s-.5.2-.9-.5a4.33,4.33,0,0,1-.9-1.8,8.92,8.92,0,0,0-.3-2.2,13.15,13.15,0,0,0-1.2-1.9,2.41,2.41,0,0,0-.8-2.8c-1.5-1.5-1.8-1.5-2.7-2.4a18.48,18.48,0,0,1-1.9-2.7,7.69,7.69,0,0,1-1.5-2.8,17.71,17.71,0,0,1-.2-2.6s1-1.5,1.4-2.2a2.1,2.1,0,0,1,1-1s.5-.5,1.7-.1,1.1.1,1.9.5,1.5-1.8,2.4.5a15.54,15.54,0,0,0,1.7,3.3,9.72,9.72,0,0,0,.9,1.7c.6.8,1.4,1.9,1.4,1.9l1,.7.8,1.1,1.6,1.4a6.36,6.36,0,0,0,1,.6,13.7,13.7,0,0,1,1.4.8,7,7,0,0,1,1.6.8,12.05,12.05,0,0,0,1.9,1,20.63,20.63,0,0,1,2.2.9c.5.3.5.7,1.5.8s3.4.6,3.8.3.5-.5,1-.6,1.4-.6,1.7-.6a11.32,11.32,0,0,0,1.8-.7l2.6,1.2,2.3,2.9,2.2,2.3,5.2,1.4s3.4,1.1,3.8,1.1l4.2.1,3.3-1.6-2-3.5,4.2-3.6-.7-2.4v-2l-6.3-5.8-1-2.3-.3-4,1.9-1.7-.5-1.4-6-9.3-.6-5.5,1.9-5.1-.3-1.6-.6-2-3.8-1.9-5.3-2.7-6.1-2.9-4.9-.7-8.3,4.1-2.9,3.1-2,1.2-3.2.8-2.3-2.4a6.32,6.32,0,0,1-2.5-.3,26.46,26.46,0,0,0-3.6-1.7l-2.3-1-2.3-1.7-1-2.3-4.1-5.3-2-.6-2.4,1.2-1.2,1.6-2.3.3-2.5-.2-3.5-3.7-4.3-1.8-2.2-3.2-2.9-2.7-2.6-.3-2.7,2.3-3.7.8-5.1.7-4.8-1.5-4.3-2.4-6.5-1.1-6.6-.2-3.2,1.7s-1.1,1.6-1.8,1.7-4.3,0-4.3,0l-4.4.5a20.68,20.68,0,0,0-2-1.5c-.3-.1-4-2.5-4-2.5l-2.4-.2Z" transform="translate(-50.7 -46.6)"/><path id="Afghanistan" class="cls-32" d="M805.2,193.6l-.6,1.2-2.1.2-.8-1.1-1.4.7-.7,1.6-.2,5.2,1.8,1,1,1,2.1,1.8,2.4.4,1,2.5.8.8,1.6,1.2,1.2.3,1.4-.6,3.2-.8,4.5-.4,3,.7,2.6,2.2s1.2,1.7,1.4,2.1.6,1.4.6,1.4l-2.2.3-6.4,1.2-2.4,3.1,1.5,4.2,5.8,3.5,3.4,3.1,3.7-1.3,4.2,5.9-4.3,1.6-2.2-.1,5.6,8.6,1.9,5.5,8.7-4.2h2l6,2.1,12.1,6.7,1.4,3.6,2.4.9,2.9-1.4,3.8-1.4,1.7-2.1,1.4-2.7,3.3-2.4,3.3-.1,2.9,1.8,1.9,1.4,2.7-.3,2-1.4,1.9-.8,1.4-2.3,1.5-2,2,.4,2.6,2,1.4,3.2,2.5-.2,3.8-1.1,3.2.3.8-.4-1.7-4.8-5.3-4.4,6.1-4,2.9,1,12.3-8.2,1.9-5.1-5.8-7,7-4,1.2-4-8.2-9.4-8.5-4.8-1.1-3.8-3.2-3.1-2.5-2.9-7-2.6-8.3-7.4-5.1,3.2-5.9-2.3-3.9-.7-3.1-1-4.4-3.1-7,.8-6.6,1.9-6.1,2-7.5,2,1.3,2.5-1.2,1.7-1.4,2.8,4.3,4.4-2.6,1.4-3,1.4-8.6-2.5-6.4,1.9-4.2-2-6.7-2.2-5-.7-5.3,2.2Z" transform="translate(-50.7 -46.6)"/><path id="Ural" class="cls-33" d="M827.1,116.1l.1,2,1.7,2.2,1.4,2,2.1,2-3.7,3.1-2.5,1-3.3,2.1-5.9,4.6,1,3.1,1.3,4.2,4.6,5.4,1.3,7.5,2.8,3.9-3,5.4,3.3,2.6,5,1.2,1,2.6-5.5,2,5.9,1.9,4-1,1.6,1.3-1.8,2.6.3,2.9,5.7,4.8,1.9-2.7,1.1-1.7-1.4-2.1,20.5-6.2,7-.8,4.1,2.8,3.2,1.1,6.4,1.6,3.2,1.6,5.4-3.6,5.3,3.5,2.4,3.3,8.6,4.2,4.4,4.8,1.7,4.3,7.8,4.3,8.5,9.4,1.3.2,1.1-1.7,2.3,1.1,2.1-.8,1.4-1.6-.7-3.8-3-2.6-1.2-3.3-2.7-1.7-3.3-1.9-3.8-2.2,3.9-2.6,4.8-3,1.5-3-6.3-6.3-1-.1-6.5-7.7.9-1.4,11.2-1.9.6-.9-3-4.1-4.2-.8,1.3-2.3-9.4-4.7h-5.6l-2-2.7.2-2.2L909,144l-.7-.8a21.82,21.82,0,0,0,1.2-2.2,31.59,31.59,0,0,0-2-2.7l.8-1-4.5-4.4-3-.3-12.6-7.5-3.7-3.5-.3-1.4-4.6-4.2-5,1.4-3.7-3.2,2.5-2.2-6.5-7-2.2-.1-2,1-1.6.8-3.1.1h-4.2l.1,2.6,2,3.7,5.4,3.7,1.1,4.4-1.7,2.9-3.1,2.7-3.1-.8,1.7-2.2,2-2.7.2-1.6-1.7-2.7-9.9-12.1L844,103l-4.1-.5-3.4,1.4-2.7,3.1.2,2,2.1,3.4,3.7,2.6,4.8,1.9-.3,1.8-3.7.4-3.1-1.9Z" transform="translate(-50.7 -46.6)"/><path id="Sibirien" class="cls-34" d="M866.6,104.4l3.1-3.7,5.5-2.3,6.9.3,2-2-1.4-3.1,3.3-.9,5.6-.8,5.3-1,7.9-.2,4.4.3,6.5-5.4,7,.1,5.3,3.6,5.9-.8,10,.2,8.8,3.9.3,2.3-10.1,5.3,3.6,1,6.3-1.4,11.3,7.4-.2,1.5-2.3,3.2-4.7,2.6s2.8,3.6,3.2,3.9a18.28,18.28,0,0,0,2.5,1s6.6,8.9,6.9,9.1-.3,2.8-.3,2.8l8.8,3.6-1.9,4.9,5.2,4.5.1,2-2.4,2.6.6,2,3.6,1.1.7,2.5,2.6,1.6-.9.9-3.6.2-1-.8-1.4.1-4.2,5.6h-1.5l-.8-1.3-4.2.6-2,2,.2,1.4,2.1,1.1.3,2.3-1.4,2,1.4,1.8.7.9-.9,1.7-.7,1.7.6.8,1.2,1-1.1.8h-4.2l-3.3,3.2-2.3,4.2-4.8-.2-3.1-2-4.1,3.8-.2,1.6,2.3,1.7-.1.9,1.2.8v.7l1.1,2.9-1.4,1-1,.5-.5.7-1.2.6-1.3-1.4-3.7,4-2.1-.9-2.2-4.2-9.9-5.9,8.8-5.6,1.2-2.9-6.2-6.4-1.1.1-6.5-7.8.6-1.4,11.8-2,.1-1.2-2.8-4-4.2-1.3,1-1.7-.8-1.9L922,152l-5.6-.1-1.9-4.8-6-4,1.1-2.2-2.1-3.1.9-.8-4.5-4.8-2.9.1-16.8-11.4.3-1.5-5.2-3.9-4.7,1.6-3.4-3.3,2.5-2.2Z" transform="translate(-50.7 -46.6)"/><path id="Indien" class="cls-35" d="M957.2,392.3l3.5.6,2-1.4,1.1-1.8-1.2-4.8-1.1-1.9-3.1-4.2-.8-1.3-3.8-4.9,2-12.1L954,351l10.3-7.5,2-4.5,4.8-2.1,2.8-5.4,6.5-3.1-.3-6,8.8-2.1,7.5-2,3.5,5.9,5.6-2.7.3-2.8-1.3-.8-.2-2.6,3.2-5.4.8-8.6,9.3-8.2-8.5-4.4-1.5-.7h-3l-5.3,3.5-1.8,4.2-3.3.6-5-4.4-3.2.3-1.4,3.2-2.5-2.4-1.6-.1-.9,1.8-1.5-.5-5.8-5.3-1.9.5-.8,1.3-2.3-.2-1.2-1.6-2.7.3-9-6-5.8.2-9.5-5.3-1.7-3.6,2.2-3.1-1.2-4.2,2.5-2.2-5.8-5-4.1-1-1.5,1.4-14.3-9.5-3.2-.3-5.3,1.6-.8-.8-1.3-3.1-4.3-2.3-2.5,3.9-3.7,2.5-3.6.8-4.8-3.7-3.8.4-2.5,2.3s-1.9,2.9-2,3.1a21.87,21.87,0,0,1-1.4,2l-6.3,2.4-3.1-.7-2,5.2.9,5.2,5.9,9.9L870,282l.2,4.4,7.1,7.6.8,3.9-3.9,4.2,1.6,3.1,6,1.4,5.6-.2,5.2-.8,4.7,2.4,1.6,3.8,6.3,4.3.9,3.5,5.5,5.9,5.1-.1,1.8-1.9.1-3.2,2-.3,1.3,11.5,1.8,8.3,9.4,20.4,5.9,12.4,2,8.7,4.1,1.2Z" transform="translate(-50.7 -46.6)"/><path id="Jakutien" class="cls-36" d="M953.4,99.7l10.6,6.7-.9,3.7-1.5,1.4-4.5,2.5,4,4.5,1.8.5,6.5,8.3.3,3.8,8,3.4,2.6.8,12.1,8.9,4.4,2.6.5,2.6,1.4,5.2h12.9l2-4.8h4.6l5.1,3.7,1-.6,3.8.1,4.4,4.6-.2.9,5.4,4.4,2.6,1.4,1.7,1.5h2.4l.5-.9,2.6.1,4.9,1.2,4,1.9,5.4-.3,2.4,1.2,4.9-.2,1.6,1.2,8.8.1,1.6-.7V165l-3.2-2.8-.1-5.4,2.3-1.4,4.3-.7,2.4-1.9,2.4,1,2.9-2.7-2.7-5.3,2.7-4.5,10.1-.5.8,1.4,2-.7.3-.7-3.8-4.9-.8-.9,1.1-1.8,4.6-.5,2.2-2h1.4l1.1,1.4,6.1-.7.9-.6-2-2.5.2-4.1,3.3-.7,2.3.2,1.4,1.4,2.6.1,1.4-1.7-.7-1.4-.9-.9-5-2,.3-.9,3.4-3.8-5.1-.6s-10.5-4.9-11.5-4.9l-28.3.1-10.8-5-7.5-.7-8.4-1.1-8.6.7-.3,4-5.1,1.1-8.7-.8-8,3.1-12.9-7.9-5-1.8-13-.3-8.3,1.1-8.5-2.4-6.8,1.5-5.5-.8-4.8-1.2Z" transform="translate(-50.7 -46.6)"/><path id="Irkutsk" class="cls-37" d="M951.3,184.3l-4,3.7.3,1.9,1.7,1.2,2.5,5.1,5.4-3.8,3.7-.9,2.8-.5,2.6,1.1,2.5.5,2.2,1.1,5.2,1.2,5.9-.5,2.3-1.4-3.3-3.3,3.5-4.2,4.4,1.9,4.5.6,2.7,1.5,3.2,2.8,4.3.9.9.7,3.3.3,2-1.5,2,.2,4,1,4.3,2,4,.9,1.7-.3,1.4,1.1,6.8.2,1.5-1.7,2.4-.1,2.4-1.5,2.4.2,1.2.9,5.3.2,2.9,1.7,2.3-1.8,3.4-.9,1.2-1.1-1.2-2.7v-2.2l1.2-.8-4.4-6.3,2.5-1.7,4.8-.9,5.7-.8,4.9,2.3,4.2,1.4,6.1,6.3,1.5,2.4,2.4,2s2.7,2.2,3.1,2.7a29.54,29.54,0,0,0,3.8,2.3l5.3,1.1,4.9,1.5,2.4-1.5-3.5-2.3-5.3-5.4-.2-2.2,3.5-3.4,2.6-2-.1-2.8-2.4-2.2-4,2-4.5.5-6.2-4.4,4.3-3.8-1.4-1.9-19.2-1.2-8.3-1.9-5.2.2-6.7-1.9-4.4-1.4-2.8,1.1-6-4.1-4.5-4.6-2.6-3.7-5.4-.7-.7,1.9-4.6-5.1-5,.2-2,4.9-12.5-.3-.7-2.6-1.8-5.3-16.6-11.5-1.9.5-1.8,3.6,5.3,4.5v2.3l-2.3,1.9v2.4l3.6,1.1,3.4,4.5-1,1.5-4.8-1.1-1.9,1-3.5,5.1-1.4-.6-4.3-.6-2.6,2,.6,1.4,1.9,1,.3,1.9-1.6,1.7,1.6,2,.7,1.8-2.2,2.5,2.3,2-1.1,1.5-4.1-.1L961,182l-1.6,3.7-4.8.2Z" transform="translate(-50.7 -46.6)"/><path id="Mongolai" class="cls-38" d="M948.8,198.9l8.5-6.5,6.6-1.4,2.5,1,2.2.6,3.8,1.6,3.8.8,5.4-.3,2.9-1.2-3.3-3.5,3.4-4.2,3.6,1.9,5.2.3,2.7,2,3.4,2.7,3.5.5,1,1.2,3.6.1,2.4-1.6,6.6,1.6,7.1,2.6,2-.1,1,1.4,7.6-.2,1.1-1.6,3.2-.2,1.7-1.2,2,.3,1.5.9h5.4l2.8,1.7s4.5-2.4,5.1-2.6a10.69,10.69,0,0,0,1.9-1.2l.1-1-1.5-2.4v-1.2l1.5-1.4-5-6.1s2.7-2.8,13.4-3.4l8.8,3.7,1.9,1.9,1.9,2,1.4,1.7,1.6,2,2.4,2.3,2.7,2.5,3.1,2.5,4.9,1.1,3.7,1.1,4.1.9,1.1,1.6,2.2,1.5,1.7,1.1,3.5,1.1,2.3-.5,1.6-1.2,2.2-1,2.2-.2,2,.9-.9,1.8.8,1.7,1.2,1.6.9,2.7-.3,1.2-1.9,1.8-2.4,1.6-1.5,1.1.3,1.7,2.2,2.3.8,1.9.2,2.2-1,2.2.7.7.1,1.4-.8,2.3.9,1.8.5,3.1-.8,1s-.6,1.1-1.1,1.2-1.9.5-1.9.5l-1.4.9-.1,1.5s1.2.8,1.6,1,2.4,2.4,2.4,2.4l3.6,1.7,3.6,3.5,3.5,2.9,1,3.1.8,3.4-2.4,1.8-2.9,1.4-2.8,1.7-1.4-1.2-1-1.9-1.2-1.7-1-3.7-1.2-2-1.8-2-1.8-1.9-3.1-1.1-3.2-.9-.5-.8.1-1.2.7-1.6-1.2-1.8-1.8-1.5-2.4-1.5-2.3-.2-2.2,1.4s-.8,1.5-1.1,1.6l-2.3.8-2-.6a14.14,14.14,0,0,1-.3-2.2v-1.8l-.8-1.4-.6-1s-1-.7-1.4-.9a5.29,5.29,0,0,0-1.6-.2l-1.2,1.1-.9,1.4-.8,1.2s-1.2.2-.9-.1-3.3-2.8-3.3-2.8l-2-.1-.8-2.6-2.9-1.1-1.8-2.6-2.5-2.7-2.5.8-1.8,2.3-2.8.3-1.7,1.5-3.1-2.4-1.5,1.6,1.1,2.6,1.4,2.7-1.8,1-3.6.7-2.8,1.8-3.2,1.8-2.5.3-1.4,3.1-.9,3.4-4.4.8-3.1-2.2-1.8-1.1.5-2.4-2.8-1.6-1.7,2.7,1.5,2.6L1032,250l-3.5.7-2.7-1.6.5-4.6-1.7-2.6-7.1,2.7-1.6-.2-7.6-5.2,1-2.6-1.6-.9-3.7.1-.8.8-1.1.2-6.8-8.8-2.7.7-7.2-7.1-2-1.1-3.3-1.1s-1.6-2-2.7-1.6a18.65,18.65,0,0,1-3.2.9l-2.8.1-3.3-2.2-2.4-.9-.6-2.2-1.5-1.9-2.3-3.5-.6-1-1.6-1.4-1.4-.9-3.7-.3-1.6-.7-.9-.6Z" transform="translate(-50.7 -46.6)"/><g id="China"><polygon id="China-2" data-name="China" class="cls-39" points="858.5 194.4 864.4 190.5 867.8 191.9 880.1 183.3 882 178.3 876.3 171.1 883.7 167.5 884.7 162.9 886.6 161.6 888.5 162.5 891.6 160.9 892.4 159.9 891.8 155 895.8 151.6 898.3 152.4 901.9 157.5 907.1 157.8 911.4 162.5 914.7 168 919.8 171.2 923.1 171.8 927.2 170.8 933.5 174.3 941.6 181.6 945.5 182.2 951.2 189.3 958 189.4 957.7 191.9 965.5 197.9 973.7 194.9 975 197.4 975.1 202.5 978 204 982.8 202.3 983.5 200.4 982.6 198.4 984 195.2 986.9 196.8 986.1 199.1 990.1 202.2 995.4 202 997.5 195 1001.8 195 1006.6 191.4 1011 190.1 1009.1 183.8 1010.8 182.8 1013.7 185.2 1018.1 183.4 1020.6 180.3 1023.4 180.8 1027.2 186.2 1029.6 186.6 1031.2 189.5 1036.5 192.7 1035.4 194.6 1030.3 197.4 1040.2 205.2 1043.2 203.1 1051.7 205.3 1050.8 206.9 1044.6 211.3 1043.1 215 1047.4 219.3 1052.2 227.7 1059 232.9 1059.1 235.2 1056.2 236.8 1061.1 238.5 1062.5 241.8 1058.1 257.4 1052.1 266.1 1050 269 1040.2 272.9 1031.8 273.5 1027.2 276.4 1024 280.9 1022 280.1 1021.2 276.7 1018.4 275.2 1013.8 276 1011.1 275.1 1008.8 273.8 1005.8 269.7 1002.2 268.9 997.8 270.5 989.4 271.8 988.8 274.2 989.5 276 988.6 277.3 982.5 276.4 980.3 274.9 976.4 267.7 971.6 264.4 970.4 261.2 972.5 256.1 973.8 254.2 971.6 249.8 968.5 246.8 965.8 245.9 959.8 243.1 956.3 240.9 952.1 241.8 948.4 245.1 946.9 248.8 943.9 249.3 938 245.1 934.7 245.6 933.8 248 931.3 246.2 929.7 246 928.6 248.1 921.4 242.2 919.4 242.4 918.3 243.8 916.1 243.5 915.6 242.1 912.3 242.2 903.5 236.3 897.4 236.4 888.4 231.3 886.4 227.7 888.8 224.8 887.6 220.5 890 218 884.5 213.1 879.7 212.3 878.5 213.8 864.5 204.5 865.7 202.9 865.1 199.6 858.5 194.4"/><path class="cls-39" d="M1118.4,306.6s0,1.4.3,1.7a9.66,9.66,0,0,1,.9,1.7l.5,3.1-1.4,1.1v3.4l-1.4,2-1.8-.6-1.2-1.7-2.3-3.1,1.5-3.4,1.2-2.3,2.2-1.7Z" transform="translate(-50.7 -46.6)"/><polygon class="cls-39" points="1022.6 283.7 1020.4 284.4 1018.7 286.7 1019.2 289.4 1021.3 291.2 1023.5 290.8 1024.9 288.7 1026.8 286.1 1027.3 284.8 1026.8 284 1022.6 283.7"/></g><path id="Siam" class="cls-40" d="M1000.4,323.9l5-2.3.1-2.7-1-1.1-.3-2.6,3.3-5.2.7-9.4,5.3-3.8.9.6,1-1.1v-1l2.2-2.2,2.9,1.6,4.1,6s-3.1,5.9-3.1,6.2.3,2.8.3,2.8l4.6,3.8,5.1,8.8,4.1,1.4,3.6.1a7.71,7.71,0,0,0,.7-2c-.1-.3-.3-3.1-.3-3.1l7-1,7.1-2,2.3.5,2.6,2.6,2.4,2.4,2.8,1.6-2,1.6-3.5,2.9-1.4,6.1,3.5,5.4,5.8,5,4.4,5.3,3.5,8,1.8,9.5-2.2,4.2-7.6,2.6-2.3,5.3-3.2,2.2-2-.9-.1-2.7.6-2.4-3.6-1.4-1.8.2-2.3-3.3-1.2-1.2-.3-1.4-1.8-1.2-3.3-2.7-4.3-3.7-3.2-.8-.7,3.7.5,5.1L1036,372l-.7,4.3,3.8,4.3,1.8,6.1,10.9,9.1,5.5,16.2-1,2.3-3.2-.3-7.1-5.4-5.5-13-.7-3.8-1.4-2.9-8.2-6.3,1.2-13,.8-6.5-3.6-4.4-3.5-12.1v-1.7l-3.8.8-3.7,3.8-2.3.1-2.3-1.9-.8-2.4.7-3.6-5.2-10.8-6.1-2.7Z" transform="translate(-50.7 -46.6)"/><polygon id="Japan" class="cls-41" points="1096.1 231.7 1093.9 232.1 1093.7 229.5 1089.4 224.2 1088.6 223.5 1089.7 221.6 1091.1 217.6 1093.8 215.8 1098.6 211.7 1100.9 211.7 1104.6 212 1112 206.1 1116.3 201.4 1116.3 198.7 1113.8 194.1 1111.9 190.9 1110 186 1105.5 180.7 1107.1 177.5 1108.3 175.1 1105.8 170.8 1106.2 168.5 1107.6 169.3 1114 174.2 1117.9 175.1 1124.9 177.4 1124.7 179.1 1120.5 182.9 1123 197.5 1125.6 208.7 1124.3 213.4 1121.5 215.4 1119.7 216.3 1112.2 216.7 1111.3 222.2 1109.1 220.9 1104.3 222.7 1102.3 224.9 1096.1 231.7"/><polygon id="Kamtschatka" class="cls-42" points="1030.5 123.5 1030.5 118.6 1027.2 115.4 1027.2 110 1033.2 108.5 1036.1 106.6 1038.4 107.2 1041.2 104.5 1038.6 99.3 1041.4 94.8 1051.3 94.7 1052.5 96 1054 94.7 1054.4 93.8 1050.1 88.3 1050.4 87 1056.1 86.3 1058.7 84.2 1060.1 85.7 1066.9 85.4 1067.4 84.4 1065.6 82 1065.8 77.6 1070.6 77.1 1072.3 78.8 1075.3 78.7 1076.6 77.1 1076 75.7 1069.5 72.8 1073.7 68.2 1076.9 66.8 1086.1 66.9 1091.7 68 1098.6 71 1099.7 69.3 1096.9 66.2 1103.3 66 1129.7 70.1 1144.9 74.1 1151.4 75.1 1159.5 79.1 1165.7 77.7 1171.5 80.2 1177.7 85.5 1174.6 87.1 1169.8 87 1160.7 83.7 1159.3 84.2 1152.4 81.5 1152.2 85.3 1151.7 85.7 1145.3 85.6 1148 87.8 1155.8 91.2 1163.1 94.1 1163.3 96 1160.8 96.7 1155.2 96.9 1150.1 101 1146.1 105.1 1141 102.8 1136.8 104.2 1134.6 105.3 1131.1 106.1 1126.9 107.9 1128.6 111.9 1133.5 115.4 1138.6 118.7 1140.5 123.1 1143.2 128.8 1142 134.9 1143.4 141.5 1141.2 143.5 1138 142.3 1135.4 140.9 1129.5 134.8 1117 123 1114.9 117.4 1117.9 107.4 1120.1 102.2 1116.1 95.8 1112.3 97.2 1113.1 100.5 1111.5 102.4 1108.8 102.2 1102.4 98.9 1096.9 98.9 1096.3 108.7 1093 110.3 1083.5 108 1076.1 109.1 1063 109.2 1057.3 112.9 1054.4 122.9 1051.9 126.7 1062.4 131.1 1067.7 129.9 1069.8 129.8 1084.1 134 1099.4 148 1101.9 151.3 1102.3 153.3 1099.3 153 1107.4 164.4 1106.3 165.1 1103.2 165.1 1099.8 161.8 1095.7 153.9 1092.2 147.7 1083 138.3 1081.3 140.3 1086.8 147 1089.1 153.1 1089.1 162.7 1087.2 172.9 1084.6 178.2 1081.1 180.2 1072.9 182 1071 182.1 1070.3 180.9 1071.9 178.7 1071.4 176.8 1070.9 174.7 1068.6 173.2 1068.1 170.8 1073.6 167 1074.5 164.6 1073.3 162 1071.5 159.5 1072.3 157.1 1069.5 156.3 1066 157.6 1062.9 159.1 1060.5 159.1 1056.4 156.7 1053.7 154 1055.4 152.3 1046.7 145.3 1046.7 142.2 1052.8 137.5 1052.3 134.3 1050.6 132.4 1046.8 134 1041.6 134.9 1035.2 130.6 1039.9 126.7 1038.3 124.7 1030.5 123.5"/></g><rect class="cls-43" x="1235.2" y="650.6" width="32" height="26"/><rect class="cls-43" width="37.1" height="23.4"/></svg>